<svg width="430" height="932" viewBox="0 0 430 932" fill="none" xmlns="http://www.w3.org/2000/svg">
<path opacity="0.08" d="M484.02 91.1013C484.372 169.642 424.044 233.688 349.144 234.024C308.327 234.207 270.423 247.004 238.683 268.975C215.694 285.129 195.99 305.977 180.792 330.228C160.124 363.493 148.261 403.352 148.453 446.154C148.805 524.695 88.4773 588.741 13.5775 589.076C-61.3223 589.412 -122.426 525.911 -122.778 447.37C-123.13 368.829 -62.5973 304.996 12.3025 304.66C52.9158 304.478 90.8184 291.467 122.558 269.496C145.549 253.556 165.252 232.708 180.246 208.458C200.913 174.979 212.98 135.119 212.788 92.3171C212.436 13.7762 272.765 -50.0558 347.869 -50.3925C422.973 -50.7292 483.668 12.5604 484.02 91.1013Z" fill="#92DCE5"/>
<path opacity="0.08" d="M626.909 517.898C637.937 630.595 559.919 730.615 452.447 741.132C393.879 746.863 341.184 770.311 298.566 806.103C267.729 832.372 242.239 864.939 223.671 901.787C198.46 952.307 186.772 1011.11 192.782 1072.53C203.81 1185.23 125.792 1285.25 18.32 1295.76C-89.1521 1306.28 -185.374 1223.31 -196.402 1110.62C-207.431 997.919 -129.09 898.177 -21.6176 887.66C36.6575 881.957 89.3226 858.202 131.94 822.41C162.808 796.448 188.298 763.882 206.572 727.062C231.754 676.235 243.735 617.399 237.725 555.984C226.696 443.288 304.744 343.575 412.509 333.029C520.274 322.483 615.88 405.201 626.909 517.898Z" fill="#92DCE5"/>
</svg>
