<svg width="24" height="24" viewBox="0 0 24 24" fill="none" xmlns="http://www.w3.org/2000/svg">
<path d="M18.7501 7.375H18.75H5.25H5.24988C4.62021 7.37563 4.01652 7.62604 3.57128 8.07128C3.12604 8.51652 2.87563 9.12021 2.875 9.74988V9.75V14.25C2.875 14.681 3.0462 15.0943 3.35095 15.399C3.6261 15.6742 3.98975 15.8405 4.375 15.8702V21C4.375 21.431 4.5462 21.8443 4.85095 22.149C5.1557 22.4538 5.56902 22.625 6 22.625H9C9.43098 22.625 9.8443 22.4538 10.149 22.149C10.4538 21.8443 10.625 21.431 10.625 21V12V11.875H10.5H9H8.875V12V20.875H6.125V14.25V14.125H6H4.625V9.75C4.625 9.58424 4.69085 9.42527 4.80806 9.30806C4.92527 9.19085 5.08424 9.125 5.25 9.125H18.75C18.9158 9.125 19.0747 9.19085 19.1919 9.30806C19.3092 9.42527 19.375 9.58424 19.375 9.75V14.125H18H17.875V14.25V20.875H15.125V12V11.875H15H13.5H13.375V12V21C13.375 21.431 13.5462 21.8443 13.851 22.149C14.1557 22.4538 14.569 22.625 15 22.625H18C18.431 22.625 18.8443 22.4538 19.149 22.149C19.4538 21.8443 19.625 21.431 19.625 21V15.8702C20.0102 15.8405 20.3739 15.6742 20.649 15.399C20.9538 15.0943 21.125 14.681 21.125 14.25V9.75V9.74988C21.1244 9.12021 20.874 8.51652 20.4287 8.07128C19.9835 7.62604 19.3798 7.37563 18.7501 7.375ZM7.5 6.875H7.50012C8.32864 6.87417 9.12298 6.54468 9.70883 5.95883C10.2947 5.37298 10.6242 4.57864 10.625 3.75013V3.75C10.625 3.13193 10.4417 2.52775 10.0983 2.01384C9.75496 1.49994 9.26691 1.0994 8.69589 0.862878C8.12487 0.626354 7.49653 0.564469 6.89034 0.685047C6.28415 0.805626 5.72733 1.10325 5.29029 1.54029C4.85325 1.97733 4.55562 2.53415 4.43505 3.14034C4.31447 3.74653 4.37635 4.37487 4.61288 4.94589C4.8494 5.51691 5.24994 6.00496 5.76384 6.34834C6.27775 6.69172 6.88193 6.875 7.5 6.875ZM16.5 6.875H16.5001C17.3286 6.87417 18.123 6.54468 18.7088 5.95883C19.2947 5.37298 19.6242 4.57864 19.625 3.75013V3.75C19.625 3.13193 19.4417 2.52775 19.0983 2.01384C18.755 1.49994 18.2669 1.0994 17.6959 0.862878C17.1249 0.626354 16.4965 0.564469 15.8903 0.685047C15.2842 0.805626 14.7273 1.10325 14.2903 1.54029C13.8533 1.97733 13.5556 2.53415 13.435 3.14034C13.3145 3.74653 13.3764 4.37487 13.6129 4.94589C13.8494 5.51691 14.2499 6.00496 14.7638 6.34834C15.2777 6.69172 15.8819 6.875 16.5 6.875ZM6.73609 2.60673C6.96221 2.45564 7.22805 2.375 7.5 2.375C7.86467 2.375 8.21441 2.51987 8.47227 2.77773C8.73013 3.03559 8.875 3.38533 8.875 3.75C8.875 4.02195 8.79436 4.28779 8.64327 4.51391C8.49218 4.74003 8.27744 4.91627 8.02619 5.02034C7.77494 5.12441 7.49847 5.15164 7.23175 5.09858C6.96503 5.04553 6.72003 4.91457 6.52773 4.72227C6.33543 4.52998 6.20447 4.28497 6.15142 4.01825C6.09837 3.75153 6.1256 3.47506 6.22967 3.22381C6.33374 2.97256 6.50997 2.75782 6.73609 2.60673ZM15.7361 2.60673C15.9622 2.45564 16.2281 2.375 16.5 2.375C16.8647 2.375 17.2144 2.51987 17.4723 2.77773C17.7301 3.03559 17.875 3.38533 17.875 3.75C17.875 4.02195 17.7944 4.28779 17.6433 4.51391C17.4922 4.74003 17.2774 4.91627 17.0262 5.02034C16.7749 5.12441 16.4985 5.15164 16.2318 5.09858C15.965 5.04553 15.72 4.91457 15.5277 4.72227C15.3354 4.52998 15.2045 4.28497 15.1514 4.01825C15.0984 3.75153 15.1256 3.47506 15.2297 3.22381C15.3337 2.97256 15.51 2.75782 15.7361 2.60673Z" fill="#232BEB" stroke="#232BEB" stroke-width="0.25"/>
</svg>
