<svg width="309" height="193" viewBox="0 0 309 193" fill="none" xmlns="http://www.w3.org/2000/svg">
<path d="M162.187 26.25C161.918 26.2496 161.651 26.3063 161.405 26.4166C161.158 26.5268 160.937 26.6881 160.755 26.8902C160.573 27.0923 160.434 27.3307 160.348 27.5902C160.262 27.8497 160.231 28.1245 160.255 28.3972C160.978 36.4665 166.843 43.3125 175.75 43.3125C184.657 43.3125 190.519 36.4665 191.245 28.3972C191.269 28.1245 191.237 27.8497 191.151 27.5902C191.065 27.3307 190.927 27.0923 190.745 26.8902C190.563 26.6881 190.342 26.5268 190.095 26.4166C189.848 26.3063 189.582 26.2496 189.312 26.25H162.187ZM175.75 39.375C169.919 39.375 165.75 35.49 164.466 30.1875H187.034C185.753 35.49 181.583 39.375 175.75 39.375ZM184.146 17.7188C183.092 17.7188 182.312 18.4721 182.188 19.32C182.112 19.8366 181.838 20.3016 181.425 20.6127C181.012 20.9238 180.495 21.0556 179.987 20.979C179.478 20.9024 179.021 20.6238 178.714 20.2043C178.408 19.7849 178.278 19.2591 178.354 18.7425C178.772 15.8813 181.255 13.7812 184.146 13.7812C187.036 13.7812 189.519 15.8813 189.938 18.7425C190.013 19.2591 189.883 19.7849 189.577 20.2043C189.271 20.6238 188.813 20.9024 188.305 20.979C187.796 21.0556 187.279 20.9238 186.866 20.6127C186.453 20.3016 186.179 19.8366 186.104 19.32C185.98 18.4721 185.2 17.7188 184.146 17.7188ZM165.396 19.32C165.52 18.4721 166.3 17.7188 167.354 17.7188C168.408 17.7188 169.188 18.4721 169.312 19.32C169.388 19.8366 169.662 20.3016 170.075 20.6127C170.487 20.9238 171.005 21.0556 171.513 20.979C172.022 20.9024 172.479 20.6238 172.785 20.2043C173.092 19.7849 173.221 19.2591 173.146 18.7425C172.73 15.8813 170.245 13.7812 167.354 13.7812C164.463 13.7812 161.981 15.8813 161.562 18.7425C161.487 19.2591 161.616 19.7849 161.923 20.2043C162.229 20.6238 162.686 20.9024 163.195 20.979C163.703 21.0556 164.221 20.9238 164.633 20.6127C165.046 20.3016 165.32 19.8366 165.396 19.32ZM175.75 0C161.482 0 149.917 11.7521 149.917 26.25C149.917 40.7479 161.482 52.5 175.75 52.5C190.018 52.5 201.583 40.7479 201.583 26.25C201.583 11.7521 190.018 0 175.75 0ZM153.792 26.25C153.792 20.3324 156.105 14.6571 160.223 10.4727C164.341 6.28827 169.926 3.9375 175.75 3.9375C181.574 3.9375 187.159 6.28827 191.277 10.4727C195.395 14.6571 197.708 20.3324 197.708 26.25C197.708 32.1676 195.395 37.8429 191.277 42.0273C187.159 46.2117 181.574 48.5625 175.75 48.5625C169.926 48.5625 164.341 46.2117 160.223 42.0273C156.105 37.8429 153.792 32.1676 153.792 26.25Z" fill="#BBBEFA"/>
<path d="M133.25 13C118.752 13 107 24.7521 107 39.25C107 53.7479 118.752 65.5 133.25 65.5C147.748 65.5 159.5 53.7479 159.5 39.25C159.5 24.7521 147.748 13 133.25 13ZM139.792 32.32C139.715 32.8366 139.436 33.3016 139.017 33.6127C138.597 33.9238 138.072 34.0556 137.555 33.979C137.038 33.9024 136.573 33.6238 136.262 33.2043C135.951 32.7849 135.819 32.2591 135.896 31.7425C136.321 28.8813 138.844 26.7812 141.781 26.7812C144.719 26.7812 147.241 28.8813 147.667 31.7425C147.743 32.2591 147.611 32.7849 147.3 33.2043C146.989 33.6238 146.524 33.9024 146.007 33.979C145.491 34.0556 144.965 33.9238 144.546 33.6127C144.126 33.3016 143.848 32.8366 143.771 32.32C143.645 31.4721 142.852 30.7188 141.781 30.7188C140.71 30.7188 139.917 31.4721 139.792 32.32ZM133.25 55C125.002 55 119.503 48.7971 118.812 41.2188H147.688C146.997 48.7971 141.498 55 133.25 55ZM124.719 30.7188C123.648 30.7188 122.855 31.4721 122.729 32.32C122.652 32.8366 122.374 33.3016 121.954 33.6127C121.535 33.9238 121.009 34.0556 120.492 33.979C119.976 33.9024 119.511 33.6238 119.2 33.2043C118.889 32.7849 118.757 32.2591 118.833 31.7425C119.259 28.8813 121.781 26.7812 124.719 26.7812C127.656 26.7812 130.179 28.8813 130.604 31.7425C130.642 31.9983 130.629 32.259 130.566 32.5099C130.503 32.7607 130.392 32.9967 130.238 33.2043C130.084 33.412 129.89 33.5873 129.668 33.7202C129.447 33.8532 129.201 33.9411 128.945 33.979C128.689 34.0169 128.428 34.0041 128.178 33.9412C127.927 33.8784 127.691 33.7667 127.483 33.6127C127.275 33.4586 127.1 33.2652 126.967 33.0434C126.834 32.8216 126.746 32.5758 126.709 32.32C126.583 31.4721 125.79 30.7188 124.719 30.7188Z" fill="#BBBEFA"/>
<path d="M41.7405 108.574C43.2289 108.891 44.4245 109.635 45.3273 110.807C46.2301 111.953 46.6815 113.271 46.6815 114.759C46.6815 116.907 45.9251 118.615 44.4123 119.883C42.9239 121.128 40.8377 121.75 38.1537 121.75H26.1855V96.0568H37.7511C40.3619 96.0568 42.3993 96.6546 43.8633 97.8502C45.3517 99.0458 46.0959 100.668 46.0959 102.718C46.0959 104.231 45.6933 105.487 44.8881 106.488C44.1073 107.488 43.0581 108.184 41.7405 108.574ZM32.4441 106.451H36.5433C37.5681 106.451 38.3489 106.232 38.8857 105.792C39.4469 105.329 39.7275 104.658 39.7275 103.779C39.7275 102.901 39.4469 102.23 38.8857 101.766C38.3489 101.303 37.5681 101.071 36.5433 101.071H32.4441V106.451ZM37.0557 116.699C38.1049 116.699 38.9101 116.467 39.4713 116.004C40.0569 115.516 40.3497 114.82 40.3497 113.918C40.3497 113.015 40.0447 112.307 39.4347 111.795C38.8491 111.282 38.0317 111.026 36.9825 111.026H32.4441V116.699H37.0557ZM56.5701 104.731C57.3021 103.609 58.2171 102.73 59.3151 102.096C60.4131 101.437 61.6331 101.108 62.9751 101.108V107.732H61.2549C59.6933 107.732 58.5221 108.074 57.7413 108.757C56.9605 109.416 56.5701 110.587 56.5701 112.271V121.75H50.3115V101.327H56.5701V104.731ZM85.2182 111.209C85.2182 111.795 85.1816 112.405 85.1084 113.039H70.9442C71.0418 114.308 71.4444 115.284 72.152 115.967C72.884 116.626 73.7746 116.955 74.8238 116.955C76.3854 116.955 77.4712 116.297 78.0812 114.979H84.7424C84.4008 116.321 83.7786 117.529 82.8758 118.602C81.9974 119.676 80.8872 120.518 79.5452 121.128C78.2032 121.738 76.7026 122.043 75.0434 122.043C73.0426 122.043 71.2614 121.616 69.6998 120.762C68.1382 119.908 66.9182 118.688 66.0398 117.102C65.1614 115.516 64.7222 113.661 64.7222 111.539C64.7222 109.416 65.1492 107.561 66.0032 105.975C66.8816 104.389 68.1016 103.169 69.6632 102.315C71.2248 101.461 73.0182 101.034 75.0434 101.034C77.0198 101.034 78.7766 101.449 80.3138 102.279C81.851 103.108 83.0466 104.292 83.9006 105.829C84.779 107.366 85.2182 109.16 85.2182 111.209ZM78.8132 109.562C78.8132 108.489 78.4472 107.635 77.7152 107C76.9832 106.366 76.0682 106.049 74.9702 106.049C73.921 106.049 73.0304 106.354 72.2984 106.964C71.5908 107.574 71.1516 108.44 70.9808 109.562H78.8132ZM87.2755 111.502C87.2755 109.404 87.6659 107.561 88.4467 105.975C89.2519 104.389 90.3377 103.169 91.7041 102.315C93.0705 101.461 94.5955 101.034 96.2791 101.034C97.7187 101.034 98.9753 101.327 100.049 101.913C101.147 102.498 101.989 103.267 102.574 104.219V101.327H108.833V121.75H102.574V118.859C101.964 119.81 101.11 120.579 100.012 121.164C98.9387 121.75 97.6821 122.043 96.2425 122.043C94.5833 122.043 93.0705 121.616 91.7041 120.762C90.3377 119.883 89.2519 118.651 88.4467 117.065C87.6659 115.455 87.2755 113.6 87.2755 111.502ZM102.574 111.539C102.574 109.977 102.135 108.745 101.257 107.842C100.403 106.939 99.3535 106.488 98.1091 106.488C96.8647 106.488 95.8033 106.939 94.9249 107.842C94.0709 108.72 93.6439 109.94 93.6439 111.502C93.6439 113.064 94.0709 114.308 94.9249 115.235C95.8033 116.138 96.8647 116.589 98.1091 116.589C99.3535 116.589 100.403 116.138 101.257 115.235C102.135 114.332 102.574 113.1 102.574 111.539ZM125.841 121.75L119.619 113.186V121.75H113.361V94.666H119.619V109.635L125.805 101.327H133.527L125.036 111.575L133.601 121.75H125.841ZM162.225 96.0568V101.071H155.417V121.75H149.158V101.071H142.351V96.0568H162.225ZM177.919 101.108C180.262 101.108 182.141 101.888 183.556 103.45C184.971 104.987 185.679 107.11 185.679 109.818V121.75H179.457V110.66C179.457 109.294 179.103 108.232 178.395 107.476C177.688 106.72 176.736 106.341 175.54 106.341C174.345 106.341 173.393 106.72 172.686 107.476C171.978 108.232 171.624 109.294 171.624 110.66V121.75H165.366V94.666H171.624V104.072C172.259 103.169 173.125 102.45 174.223 101.913C175.321 101.376 176.553 101.108 177.919 101.108ZM209.279 111.209C209.279 111.795 209.243 112.405 209.169 113.039H195.005C195.103 114.308 195.505 115.284 196.213 115.967C196.945 116.626 197.836 116.955 198.885 116.955C200.446 116.955 201.532 116.297 202.142 114.979H208.804C208.462 116.321 207.84 117.529 206.937 118.602C206.058 119.676 204.948 120.518 203.606 121.128C202.264 121.738 200.764 122.043 199.104 122.043C197.104 122.043 195.322 121.616 193.761 120.762C192.199 119.908 190.979 118.688 190.101 117.102C189.222 115.516 188.783 113.661 188.783 111.539C188.783 109.416 189.21 107.561 190.064 105.975C190.943 104.389 192.163 103.169 193.724 102.315C195.286 101.461 197.079 101.034 199.104 101.034C201.081 101.034 202.838 101.449 204.375 102.279C205.912 103.108 207.108 104.292 207.962 105.829C208.84 107.366 209.279 109.16 209.279 111.209ZM202.874 109.562C202.874 108.489 202.508 107.635 201.776 107C201.044 106.366 200.129 106.049 199.031 106.049C197.982 106.049 197.091 106.354 196.359 106.964C195.652 107.574 195.213 108.44 195.042 109.562H202.874ZM226.596 96.0568V121.75H220.337V96.0568H226.596ZM229.887 111.539C229.887 109.416 230.314 107.561 231.168 105.975C232.046 104.389 233.254 103.169 234.791 102.315C236.353 101.461 238.134 101.034 240.135 101.034C242.697 101.034 244.832 101.705 246.54 103.047C248.272 104.389 249.407 106.28 249.944 108.72H243.282C242.721 107.159 241.635 106.378 240.025 106.378C238.878 106.378 237.963 106.829 237.28 107.732C236.597 108.611 236.255 109.879 236.255 111.539C236.255 113.198 236.597 114.479 237.28 115.382C237.963 116.26 238.878 116.699 240.025 116.699C241.635 116.699 242.721 115.918 243.282 114.357H249.944C249.407 116.748 248.272 118.627 246.54 119.993C244.807 121.36 242.672 122.043 240.135 122.043C238.134 122.043 236.353 121.616 234.791 120.762C233.254 119.908 232.046 118.688 231.168 117.102C230.314 115.516 229.887 113.661 229.887 111.539ZM272.543 111.209C272.543 111.795 272.506 112.405 272.433 113.039H258.269C258.367 114.308 258.769 115.284 259.477 115.967C260.209 116.626 261.099 116.955 262.149 116.955C263.71 116.955 264.796 116.297 265.406 114.979H272.067C271.726 116.321 271.103 117.529 270.201 118.602C269.322 119.676 268.212 120.518 266.87 121.128C265.528 121.738 264.027 122.043 262.368 122.043C260.367 122.043 258.586 121.616 257.025 120.762C255.463 119.908 254.243 118.688 253.365 117.102C252.486 115.516 252.047 113.661 252.047 111.539C252.047 109.416 252.474 107.561 253.328 105.975C254.206 104.389 255.426 103.169 256.988 102.315C258.55 101.461 260.343 101.034 262.368 101.034C264.345 101.034 266.101 101.449 267.639 102.279C269.176 103.108 270.371 104.292 271.225 105.829C272.104 107.366 272.543 109.16 272.543 111.209ZM266.138 109.562C266.138 108.489 265.772 107.635 265.04 107C264.308 106.366 263.393 106.049 262.295 106.049C261.246 106.049 260.355 106.354 259.623 106.964C258.916 107.574 258.476 108.44 258.306 109.562H266.138ZM282.579 115.967L278.517 126.471H274.527L276.65 115.967H282.579ZM34.3552 158.75H28.0966L17.629 142.902V158.75H11.3704V133.057H17.629L28.0966 148.978V133.057H34.3552V158.75ZM48.1883 159.043C46.1875 159.043 44.3819 158.616 42.7715 157.762C41.1855 156.908 39.9289 155.688 39.0017 154.102C38.0989 152.516 37.6475 150.661 37.6475 148.539C37.6475 146.44 38.1111 144.598 39.0383 143.012C39.9655 141.402 41.2343 140.169 42.8447 139.315C44.4551 138.461 46.2607 138.034 48.2615 138.034C50.2623 138.034 52.0679 138.461 53.6783 139.315C55.2887 140.169 56.5575 141.402 57.4847 143.012C58.4119 144.598 58.8755 146.44 58.8755 148.539C58.8755 150.637 58.3997 152.491 57.4481 154.102C56.5209 155.688 55.2399 156.908 53.6051 157.762C51.9947 158.616 50.1891 159.043 48.1883 159.043ZM48.1883 153.626C49.3839 153.626 50.3965 153.187 51.2261 152.308C52.0801 151.43 52.5071 150.173 52.5071 148.539C52.5071 146.904 52.0923 145.647 51.2627 144.769C50.4575 143.89 49.4571 143.451 48.2615 143.451C47.0415 143.451 46.0289 143.89 45.2237 144.769C44.4185 145.623 44.0159 146.879 44.0159 148.539C44.0159 150.173 44.4063 151.43 45.1871 152.308C45.9923 153.187 46.9927 153.626 48.1883 153.626ZM73.5784 153.443V158.75H70.3942C68.125 158.75 66.356 158.201 65.0872 157.103C63.8184 155.981 63.184 154.163 63.184 151.65V143.524H60.6952V138.327H63.184V133.35H69.4426V138.327H73.5418V143.524H69.4426V151.723C69.4426 152.333 69.589 152.772 69.8818 153.04C70.1746 153.309 70.6626 153.443 71.3458 153.443H73.5784ZM103.304 133.057V138.071H96.496V158.75H90.2374V138.071H83.4298V133.057H103.304ZM118.998 138.108C121.341 138.108 123.22 138.888 124.635 140.45C126.05 141.987 126.758 144.11 126.758 146.818V158.75H120.536V147.66C120.536 146.294 120.182 145.232 119.474 144.476C118.767 143.72 117.815 143.341 116.619 143.341C115.424 143.341 114.472 143.72 113.765 144.476C113.057 145.232 112.703 146.294 112.703 147.66V158.75H106.445V131.666H112.703V141.072C113.338 140.169 114.204 139.45 115.302 138.913C116.4 138.376 117.632 138.108 118.998 138.108ZM150.358 148.209C150.358 148.795 150.322 149.405 150.249 150.039H136.084C136.182 151.308 136.585 152.284 137.292 152.967C138.024 153.626 138.915 153.955 139.964 153.955C141.526 153.955 142.611 153.297 143.221 151.979H149.883C149.541 153.321 148.919 154.529 148.016 155.602C147.138 156.676 146.027 157.518 144.685 158.128C143.343 158.738 141.843 159.043 140.184 159.043C138.183 159.043 136.402 158.616 134.84 157.762C133.278 156.908 132.058 155.688 131.18 154.102C130.302 152.516 129.862 150.661 129.862 148.539C129.862 146.416 130.289 144.561 131.143 142.975C132.022 141.389 133.242 140.169 134.803 139.315C136.365 138.461 138.158 138.034 140.184 138.034C142.16 138.034 143.917 138.449 145.454 139.279C146.991 140.108 148.187 141.292 149.041 142.829C149.919 144.366 150.358 146.16 150.358 148.209ZM143.953 146.562C143.953 145.489 143.587 144.635 142.855 144C142.123 143.366 141.208 143.049 140.11 143.049C139.061 143.049 138.171 143.354 137.439 143.964C136.731 144.574 136.292 145.44 136.121 146.562H143.953ZM171.042 133.057C173.75 133.057 176.117 133.594 178.142 134.667C180.167 135.741 181.729 137.254 182.827 139.206C183.949 141.133 184.511 143.366 184.511 145.903C184.511 148.417 183.949 150.649 182.827 152.601C181.729 154.553 180.155 156.066 178.106 157.14C176.08 158.213 173.726 158.75 171.042 158.75H161.416V133.057H171.042ZM170.639 153.333C173.006 153.333 174.848 152.687 176.166 151.393C177.483 150.1 178.142 148.27 178.142 145.903C178.142 143.537 177.483 141.694 176.166 140.377C174.848 139.059 173.006 138.4 170.639 138.4H167.675V153.333H170.639ZM191.156 136.204C190.058 136.204 189.155 135.887 188.447 135.253C187.764 134.594 187.423 133.789 187.423 132.837C187.423 131.861 187.764 131.056 188.447 130.422C189.155 129.763 190.058 129.433 191.156 129.433C192.229 129.433 193.108 129.763 193.791 130.422C194.499 131.056 194.852 131.861 194.852 132.837C194.852 133.789 194.499 134.594 193.791 135.253C193.108 135.887 192.229 136.204 191.156 136.204ZM194.267 138.327V158.75H188.008V138.327H194.267ZM207.111 159.043C205.329 159.043 203.743 158.738 202.353 158.128C200.962 157.518 199.864 156.688 199.059 155.639C198.253 154.565 197.802 153.37 197.704 152.052H203.89C203.963 152.76 204.292 153.333 204.878 153.772C205.464 154.212 206.183 154.431 207.037 154.431C207.818 154.431 208.416 154.285 208.831 153.992C209.27 153.675 209.49 153.272 209.49 152.784C209.49 152.199 209.185 151.772 208.575 151.503C207.965 151.21 206.976 150.893 205.61 150.552C204.146 150.21 202.926 149.856 201.95 149.49C200.974 149.1 200.132 148.502 199.425 147.697C198.717 146.867 198.363 145.757 198.363 144.366C198.363 143.195 198.68 142.134 199.315 141.182C199.974 140.206 200.925 139.437 202.17 138.876C203.438 138.315 204.939 138.034 206.671 138.034C209.233 138.034 211.246 138.669 212.71 139.938C214.199 141.206 215.053 142.89 215.272 144.988H209.49C209.392 144.281 209.075 143.72 208.538 143.305C208.026 142.89 207.342 142.683 206.488 142.683C205.756 142.683 205.195 142.829 204.805 143.122C204.414 143.39 204.219 143.768 204.219 144.256C204.219 144.842 204.524 145.281 205.134 145.574C205.769 145.867 206.745 146.16 208.062 146.452C209.575 146.843 210.807 147.233 211.759 147.624C212.71 147.99 213.54 148.6 214.248 149.454C214.98 150.283 215.358 151.406 215.382 152.821C215.382 154.016 215.041 155.09 214.357 156.042C213.699 156.969 212.735 157.701 211.466 158.238C210.222 158.774 208.77 159.043 207.111 159.043ZM231.765 138.108C234.107 138.108 235.986 138.888 237.401 140.45C238.817 141.987 239.524 144.11 239.524 146.818V158.75H233.302V147.66C233.302 146.294 232.948 145.232 232.241 144.476C231.533 143.72 230.582 143.341 229.386 143.341C228.19 143.341 227.239 143.72 226.531 144.476C225.824 145.232 225.47 146.294 225.47 147.66V158.75H219.211V131.666H225.47V141.072C226.104 140.169 226.97 139.45 228.068 138.913C229.166 138.376 230.399 138.108 231.765 138.108ZM263.125 148.209C263.125 148.795 263.088 149.405 263.015 150.039H248.851C248.948 151.308 249.351 152.284 250.059 152.967C250.791 153.626 251.681 153.955 252.73 153.955C254.292 153.955 255.378 153.297 255.988 151.979H262.649C262.307 153.321 261.685 154.529 260.782 155.602C259.904 156.676 258.794 157.518 257.452 158.128C256.11 158.738 254.609 159.043 252.95 159.043C250.949 159.043 249.168 158.616 247.606 157.762C246.045 156.908 244.825 155.688 243.946 154.102C243.068 152.516 242.629 150.661 242.629 148.539C242.629 146.416 243.056 144.561 243.91 142.975C244.788 141.389 246.008 140.169 247.57 139.315C249.131 138.461 250.925 138.034 252.95 138.034C254.926 138.034 256.683 138.449 258.22 139.279C259.758 140.108 260.953 141.292 261.807 142.829C262.686 144.366 263.125 146.16 263.125 148.209ZM256.72 146.562C256.72 145.489 256.354 144.635 255.622 144C254.89 143.366 253.975 143.049 252.877 143.049C251.828 143.049 250.937 143.354 250.205 143.964C249.497 144.574 249.058 145.44 248.887 146.562H256.72ZM274.735 159.043C272.954 159.043 271.368 158.738 269.977 158.128C268.586 157.518 267.488 156.688 266.683 155.639C265.878 154.565 265.426 153.37 265.329 152.052H271.514C271.587 152.76 271.917 153.333 272.502 153.772C273.088 154.212 273.808 154.431 274.662 154.431C275.442 154.431 276.04 154.285 276.455 153.992C276.894 153.675 277.114 153.272 277.114 152.784C277.114 152.199 276.809 151.772 276.199 151.503C275.589 151.21 274.601 150.893 273.234 150.552C271.77 150.21 270.55 149.856 269.574 149.49C268.598 149.1 267.756 148.502 267.049 147.697C266.341 146.867 265.987 145.757 265.987 144.366C265.987 143.195 266.305 142.134 266.939 141.182C267.598 140.206 268.549 139.437 269.794 138.876C271.063 138.315 272.563 138.034 274.296 138.034C276.858 138.034 278.871 138.669 280.335 139.938C281.823 141.206 282.677 142.89 282.897 144.988H277.114C277.016 144.281 276.699 143.72 276.162 143.305C275.65 142.89 274.967 142.683 274.113 142.683C273.381 142.683 272.819 142.829 272.429 143.122C272.039 143.39 271.843 143.768 271.843 144.256C271.843 144.842 272.148 145.281 272.758 145.574C273.393 145.867 274.369 146.16 275.686 146.452C277.199 146.843 278.431 147.233 279.383 147.624C280.335 147.99 281.164 148.6 281.872 149.454C282.604 150.283 282.982 151.406 283.006 152.821C283.006 154.016 282.665 155.09 281.982 156.042C281.323 156.969 280.359 157.701 279.09 158.238C277.846 158.774 276.394 159.043 274.735 159.043ZM295.07 132.142L294.338 149.673H289.031L288.299 132.142H295.07ZM291.776 159.043C290.678 159.043 289.776 158.726 289.068 158.091C288.385 157.432 288.043 156.627 288.043 155.676C288.043 154.7 288.385 153.882 289.068 153.223C289.776 152.565 290.678 152.235 291.776 152.235C292.85 152.235 293.728 152.565 294.412 153.223C295.119 153.882 295.473 154.7 295.473 155.676C295.473 156.627 295.119 157.432 294.412 158.091C293.728 158.726 292.85 159.043 291.776 159.043Z" fill="#BBBEFA"/>
<path d="M4.172 186.848C3.528 186.848 2.94933 186.736 2.436 186.512C1.932 186.279 1.53533 185.961 1.246 185.56C0.956667 185.149 0.807333 184.678 0.798 184.146H2.156C2.20267 184.603 2.38933 184.991 2.716 185.308C3.052 185.616 3.53733 185.77 4.172 185.77C4.77867 185.77 5.25467 185.621 5.6 185.322C5.95467 185.014 6.132 184.622 6.132 184.146C6.132 183.773 6.02933 183.469 5.824 183.236C5.61867 183.003 5.362 182.825 5.054 182.704C4.746 182.583 4.33067 182.452 3.808 182.312C3.164 182.144 2.646 181.976 2.254 181.808C1.87133 181.64 1.54 181.379 1.26 181.024C0.989333 180.66 0.854 180.175 0.854 179.568C0.854 179.036 0.989333 178.565 1.26 178.154C1.53067 177.743 1.90867 177.426 2.394 177.202C2.88867 176.978 3.45333 176.866 4.088 176.866C5.00267 176.866 5.74933 177.095 6.328 177.552C6.916 178.009 7.24733 178.616 7.322 179.372H5.922C5.87533 178.999 5.67933 178.672 5.334 178.392C4.98867 178.103 4.53133 177.958 3.962 177.958C3.43 177.958 2.996 178.098 2.66 178.378C2.324 178.649 2.156 179.031 2.156 179.526C2.156 179.881 2.254 180.17 2.45 180.394C2.65533 180.618 2.90267 180.791 3.192 180.912C3.49067 181.024 3.906 181.155 4.438 181.304C5.082 181.481 5.6 181.659 5.992 181.836C6.384 182.004 6.72 182.27 7 182.634C7.28 182.989 7.42 183.474 7.42 184.09C7.42 184.566 7.294 185.014 7.042 185.434C6.79 185.854 6.41667 186.195 5.922 186.456C5.42733 186.717 4.844 186.848 4.172 186.848ZM10.8488 180.128V184.65C10.8488 185.023 10.9281 185.289 11.0868 185.448C11.2455 185.597 11.5208 185.672 11.9128 185.672H12.8508V186.75H11.7028C10.9935 186.75 10.4615 186.587 10.1068 186.26C9.75213 185.933 9.5748 185.397 9.5748 184.65V180.128H8.5808V179.078H9.5748V177.146H10.8488V179.078H12.8508V180.128H10.8488ZM13.9184 182.886C13.9184 182.102 14.0771 181.416 14.3944 180.828C14.7117 180.231 15.1457 179.769 15.6964 179.442C16.2564 179.115 16.8771 178.952 17.5584 178.952C18.2304 178.952 18.8137 179.097 19.3084 179.386C19.8031 179.675 20.1717 180.039 20.4144 180.478V179.078H21.7024V186.75H20.4144V185.322C20.1624 185.77 19.7844 186.143 19.2804 186.442C18.7857 186.731 18.2071 186.876 17.5444 186.876C16.8631 186.876 16.2471 186.708 15.6964 186.372C15.1457 186.036 14.7117 185.565 14.3944 184.958C14.0771 184.351 13.9184 183.661 13.9184 182.886ZM20.4144 182.9C20.4144 182.321 20.2977 181.817 20.0644 181.388C19.8311 180.959 19.5137 180.632 19.1124 180.408C18.7204 180.175 18.2864 180.058 17.8104 180.058C17.3344 180.058 16.9004 180.17 16.5084 180.394C16.1164 180.618 15.8037 180.945 15.5704 181.374C15.3371 181.803 15.2204 182.307 15.2204 182.886C15.2204 183.474 15.3371 183.987 15.5704 184.426C15.8037 184.855 16.1164 185.187 16.5084 185.42C16.9004 185.644 17.3344 185.756 17.8104 185.756C18.2864 185.756 18.7204 185.644 19.1124 185.42C19.5137 185.187 19.8311 184.855 20.0644 184.426C20.2977 183.987 20.4144 183.479 20.4144 182.9ZM25.1293 180.324C25.3533 179.885 25.6707 179.545 26.0813 179.302C26.5013 179.059 27.01 178.938 27.6073 178.938V180.254H27.2713C25.8433 180.254 25.1293 181.029 25.1293 182.578V186.75H23.8553V179.078H25.1293V180.324ZM30.632 180.128V184.65C30.632 185.023 30.7113 185.289 30.87 185.448C31.0287 185.597 31.304 185.672 31.696 185.672H32.634V186.75H31.486C30.7767 186.75 30.2447 186.587 29.89 186.26C29.5353 185.933 29.358 185.397 29.358 184.65V180.128H28.364V179.078H29.358V177.146H30.632V179.078H32.634V180.128H30.632ZM39.464 180.128V184.65C39.464 185.023 39.5434 185.289 39.702 185.448C39.8607 185.597 40.136 185.672 40.528 185.672H41.466V186.75H40.318C39.6087 186.75 39.0767 186.587 38.722 186.26C38.3674 185.933 38.19 185.397 38.19 184.65V180.128H37.196V179.078H38.19V177.146H39.464V179.078H41.466V180.128H39.464ZM46.8176 178.938C47.3963 178.938 47.919 179.064 48.3856 179.316C48.8523 179.559 49.2163 179.927 49.4776 180.422C49.7483 180.917 49.8836 181.519 49.8836 182.228V186.75H48.6236V182.41C48.6236 181.645 48.4323 181.061 48.0496 180.66C47.667 180.249 47.1443 180.044 46.4816 180.044C45.8096 180.044 45.273 180.254 44.8716 180.674C44.4796 181.094 44.2836 181.705 44.2836 182.508V186.75H43.0096V176.39H44.2836V180.17C44.5356 179.778 44.881 179.475 45.3196 179.26C45.7676 179.045 46.267 178.938 46.8176 178.938ZM58.9647 182.62C58.9647 182.863 58.9507 183.119 58.9227 183.39H52.7907C52.8374 184.146 53.0941 184.739 53.5607 185.168C54.0367 185.588 54.6107 185.798 55.2827 185.798C55.8334 185.798 56.2907 185.672 56.6547 185.42C57.0281 185.159 57.2894 184.813 57.4387 184.384H58.8107C58.6054 185.121 58.1947 185.723 57.5787 186.19C56.9627 186.647 56.1974 186.876 55.2827 186.876C54.5547 186.876 53.9014 186.713 53.3227 186.386C52.7534 186.059 52.3054 185.597 51.9787 185C51.6521 184.393 51.4887 183.693 51.4887 182.9C51.4887 182.107 51.6474 181.411 51.9647 180.814C52.2821 180.217 52.7254 179.759 53.2947 179.442C53.8734 179.115 54.5361 178.952 55.2827 178.952C56.0107 178.952 56.6547 179.111 57.2147 179.428C57.7747 179.745 58.2041 180.184 58.5027 180.744C58.8107 181.295 58.9647 181.92 58.9647 182.62ZM57.6487 182.354C57.6487 181.869 57.5414 181.453 57.3267 181.108C57.1121 180.753 56.8181 180.487 56.4447 180.31C56.0807 180.123 55.6747 180.03 55.2267 180.03C54.5827 180.03 54.0321 180.235 53.5747 180.646C53.1267 181.057 52.8701 181.626 52.8047 182.354H57.6487ZM63.8608 182.9C64.0008 182.107 64.2808 181.416 64.7008 180.828C65.1301 180.231 65.6574 179.769 66.2828 179.442C66.9081 179.115 67.5848 178.952 68.3128 178.952C69.2554 178.952 69.9881 179.181 70.5108 179.638C71.0428 180.095 71.3368 180.73 71.3928 181.542H70.0208C69.9741 181.075 69.7828 180.707 69.4468 180.436C69.1201 180.165 68.6768 180.03 68.1168 180.03C67.3888 180.03 66.7541 180.282 66.2128 180.786C65.6808 181.281 65.3354 181.985 65.1768 182.9C65.1301 183.208 65.1068 183.465 65.1068 183.67C65.1068 184.351 65.2888 184.879 65.6528 185.252C66.0168 185.616 66.5021 185.798 67.1088 185.798C67.6688 185.798 68.1541 185.667 68.5648 185.406C68.9848 185.145 69.3068 184.771 69.5308 184.286H70.9028C70.5668 185.07 70.0488 185.7 69.3488 186.176C68.6488 186.643 67.8368 186.876 66.9128 186.876C65.9514 186.876 65.1861 186.601 64.6168 186.05C64.0568 185.499 63.7768 184.748 63.7768 183.796C63.7768 183.507 63.8048 183.208 63.8608 182.9ZM75.5427 186.876C74.8987 186.876 74.3294 186.745 73.8347 186.484C73.3494 186.213 72.9714 185.84 72.7007 185.364C72.43 184.879 72.2947 184.319 72.2947 183.684C72.2947 182.816 72.4954 182.023 72.8967 181.304C73.298 180.576 73.8487 180.002 74.5487 179.582C75.258 179.162 76.0467 178.952 76.9147 178.952C77.5587 178.952 78.128 179.087 78.6227 179.358C79.1267 179.619 79.514 179.993 79.7847 180.478C80.0647 180.954 80.2047 181.514 80.2047 182.158C80.2047 183.026 79.9994 183.819 79.5887 184.538C79.178 185.257 78.618 185.826 77.9087 186.246C77.1994 186.666 76.4107 186.876 75.5427 186.876ZM75.6967 185.798C76.3034 185.798 76.8494 185.635 77.3347 185.308C77.82 184.972 78.198 184.533 78.4687 183.992C78.7487 183.441 78.8887 182.853 78.8887 182.228C78.8887 181.519 78.6834 180.977 78.2727 180.604C77.862 180.221 77.3487 180.03 76.7327 180.03C76.126 180.03 75.5847 180.198 75.1087 180.534C74.6327 180.861 74.264 181.299 74.0027 181.85C73.7414 182.401 73.6107 182.993 73.6107 183.628C73.6107 184.319 73.8067 184.855 74.1987 185.238C74.5907 185.611 75.09 185.798 75.6967 185.798ZM86.2478 178.938C87.0411 178.938 87.6758 179.153 88.1518 179.582C88.6278 180.002 88.8658 180.618 88.8658 181.43C88.8658 181.729 88.8424 181.995 88.7958 182.228L87.9978 186.75H86.7378L87.5078 182.41C87.5451 182.214 87.5638 182.009 87.5638 181.794C87.5638 181.225 87.4051 180.791 87.0878 180.492C86.7798 180.193 86.3458 180.044 85.7858 180.044C85.1138 180.044 84.5398 180.254 84.0638 180.674C83.5971 181.094 83.2938 181.705 83.1538 182.508V182.48L82.3978 186.75H81.1238L82.4818 179.078H83.7558L83.5598 180.184C83.8771 179.783 84.2738 179.475 84.7498 179.26C85.2258 179.045 85.7251 178.938 86.2478 178.938ZM93.1448 185.546L96.6728 179.078H98.0448L93.6768 186.75H92.1788L90.5268 179.078H91.8988L93.1448 185.546ZM101.301 186.876C100.657 186.876 100.087 186.745 99.5925 186.484C99.1072 186.213 98.7292 185.84 98.4585 185.364C98.1878 184.879 98.0525 184.319 98.0525 183.684C98.0525 182.816 98.2532 182.023 98.6545 181.304C99.0558 180.576 99.6065 180.002 100.307 179.582C101.016 179.162 101.805 178.952 102.673 178.952C103.317 178.952 103.886 179.087 104.381 179.358C104.885 179.619 105.272 179.993 105.543 180.478C105.823 180.954 105.963 181.514 105.963 182.158C105.963 183.026 105.757 183.819 105.347 184.538C104.936 185.257 104.376 185.826 103.667 186.246C102.957 186.666 102.169 186.876 101.301 186.876ZM101.455 185.798C102.061 185.798 102.607 185.635 103.093 185.308C103.578 184.972 103.956 184.533 104.227 183.992C104.507 183.441 104.647 182.853 104.647 182.228C104.647 181.519 104.441 180.977 104.031 180.604C103.62 180.221 103.107 180.03 102.491 180.03C101.884 180.03 101.343 180.198 100.867 180.534C100.391 180.861 100.022 181.299 99.7605 181.85C99.4992 182.401 99.3685 182.993 99.3685 183.628C99.3685 184.319 99.5645 184.855 99.9565 185.238C100.349 185.611 100.848 185.798 101.455 185.798ZM121.548 179.078L119.154 186.75H117.838L115.99 180.66L114.142 186.75H112.826L110.418 179.078H111.72L113.484 185.518L115.388 179.078H116.69L118.552 185.532L120.288 179.078H121.548ZM123.47 177.832C123.228 177.832 123.022 177.748 122.854 177.58C122.686 177.412 122.602 177.207 122.602 176.964C122.602 176.721 122.686 176.516 122.854 176.348C123.022 176.18 123.228 176.096 123.47 176.096C123.704 176.096 123.9 176.18 124.058 176.348C124.226 176.516 124.31 176.721 124.31 176.964C124.31 177.207 124.226 177.412 124.058 177.58C123.9 177.748 123.704 177.832 123.47 177.832ZM124.086 179.078V186.75H122.812V179.078H124.086ZM127.812 180.128V184.65C127.812 185.023 127.891 185.289 128.05 185.448C128.208 185.597 128.484 185.672 128.876 185.672H129.814V186.75H128.666C127.956 186.75 127.424 186.587 127.07 186.26C126.715 185.933 126.538 185.397 126.538 184.65V180.128H125.544V179.078H126.538V177.146H127.812V179.078H129.814V180.128H127.812ZM135.165 178.938C135.744 178.938 136.267 179.064 136.733 179.316C137.2 179.559 137.564 179.927 137.825 180.422C138.096 180.917 138.231 181.519 138.231 182.228V186.75H136.971V182.41C136.971 181.645 136.78 181.061 136.397 180.66C136.015 180.249 135.492 180.044 134.829 180.044C134.157 180.044 133.621 180.254 133.219 180.674C132.827 181.094 132.631 181.705 132.631 182.508V186.75H131.357V176.39H132.631V180.17C132.883 179.778 133.229 179.475 133.667 179.26C134.115 179.045 134.615 178.938 135.165 178.938ZM150.653 179.078L146.033 190.362H144.717L146.229 186.666L143.135 179.078H144.549L146.957 185.294L149.337 179.078H150.653ZM155.279 186.876C154.561 186.876 153.907 186.713 153.319 186.386C152.741 186.059 152.283 185.597 151.947 185C151.621 184.393 151.457 183.693 151.457 182.9C151.457 182.116 151.625 181.425 151.961 180.828C152.307 180.221 152.773 179.759 153.361 179.442C153.949 179.115 154.607 178.952 155.335 178.952C156.063 178.952 156.721 179.115 157.309 179.442C157.897 179.759 158.359 180.217 158.695 180.814C159.041 181.411 159.213 182.107 159.213 182.9C159.213 183.693 159.036 184.393 158.681 185C158.336 185.597 157.865 186.059 157.267 186.386C156.67 186.713 156.007 186.876 155.279 186.876ZM155.279 185.756C155.737 185.756 156.166 185.649 156.567 185.434C156.969 185.219 157.291 184.897 157.533 184.468C157.785 184.039 157.911 183.516 157.911 182.9C157.911 182.284 157.79 181.761 157.547 181.332C157.305 180.903 156.987 180.585 156.595 180.38C156.203 180.165 155.779 180.058 155.321 180.058C154.855 180.058 154.425 180.165 154.033 180.38C153.651 180.585 153.343 180.903 153.109 181.332C152.876 181.761 152.759 182.284 152.759 182.9C152.759 183.525 152.871 184.053 153.095 184.482C153.329 184.911 153.637 185.233 154.019 185.448C154.402 185.653 154.822 185.756 155.279 185.756ZM167.693 179.078V186.75H166.419V185.616C166.176 186.008 165.835 186.316 165.397 186.54C164.967 186.755 164.491 186.862 163.969 186.862C163.371 186.862 162.835 186.741 162.359 186.498C161.883 186.246 161.505 185.873 161.225 185.378C160.954 184.883 160.819 184.281 160.819 183.572V179.078H162.079V183.404C162.079 184.16 162.27 184.743 162.653 185.154C163.035 185.555 163.558 185.756 164.221 185.756C164.902 185.756 165.439 185.546 165.831 185.126C166.223 184.706 166.419 184.095 166.419 183.292V179.078H167.693ZM171.118 180.324C171.342 179.885 171.659 179.545 172.07 179.302C172.49 179.059 172.998 178.938 173.596 178.938V180.254H173.26C171.832 180.254 171.118 181.029 171.118 182.578V186.75H169.844V179.078H171.118V180.324ZM181.921 180.128H180.311V186.75H179.037V180.128H178.043V179.078H179.037V178.532C179.037 177.673 179.256 177.048 179.695 176.656C180.143 176.255 180.857 176.054 181.837 176.054V177.118C181.277 177.118 180.88 177.23 180.647 177.454C180.423 177.669 180.311 178.028 180.311 178.532V179.078H181.921V180.128ZM190.21 179.078V186.75H188.936V185.616C188.693 186.008 188.353 186.316 187.914 186.54C187.485 186.755 187.009 186.862 186.486 186.862C185.889 186.862 185.352 186.741 184.876 186.498C184.4 186.246 184.022 185.873 183.742 185.378C183.471 184.883 183.336 184.281 183.336 183.572V179.078H184.596V183.404C184.596 184.16 184.787 184.743 185.17 185.154C185.553 185.555 186.075 185.756 186.738 185.756C187.419 185.756 187.956 185.546 188.348 185.126C188.74 184.706 188.936 184.095 188.936 183.292V179.078H190.21ZM193.915 180.128V184.65C193.915 185.023 193.995 185.289 194.153 185.448C194.312 185.597 194.587 185.672 194.979 185.672H195.917V186.75H194.769C194.06 186.75 193.528 186.587 193.173 186.26C192.819 185.933 192.641 185.397 192.641 184.65V180.128H191.647V179.078H192.641V177.146H193.915V179.078H195.917V180.128H193.915ZM204.265 179.078V186.75H202.991V185.616C202.748 186.008 202.407 186.316 201.969 186.54C201.539 186.755 201.063 186.862 200.541 186.862C199.943 186.862 199.407 186.741 198.931 186.498C198.455 186.246 198.077 185.873 197.797 185.378C197.526 184.883 197.391 184.281 197.391 183.572V179.078H198.651V183.404C198.651 184.16 198.842 184.743 199.225 185.154C199.607 185.555 200.13 185.756 200.793 185.756C201.474 185.756 202.011 185.546 202.403 185.126C202.795 184.706 202.991 184.095 202.991 183.292V179.078H204.265ZM207.69 180.324C207.914 179.885 208.231 179.545 208.642 179.302C209.062 179.059 209.571 178.938 210.168 178.938V180.254H209.832C208.404 180.254 207.69 181.029 207.69 182.578V186.75H206.416V179.078H207.69V180.324ZM218.639 182.62C218.639 182.863 218.625 183.119 218.597 183.39H212.465C212.511 184.146 212.768 184.739 213.235 185.168C213.711 185.588 214.285 185.798 214.957 185.798C215.507 185.798 215.965 185.672 216.329 185.42C216.702 185.159 216.963 184.813 217.113 184.384H218.485C218.279 185.121 217.869 185.723 217.253 186.19C216.637 186.647 215.871 186.876 214.957 186.876C214.229 186.876 213.575 186.713 212.997 186.386C212.427 186.059 211.979 185.597 211.653 185C211.326 184.393 211.163 183.693 211.163 182.9C211.163 182.107 211.321 181.411 211.639 180.814C211.956 180.217 212.399 179.759 212.969 179.442C213.547 179.115 214.21 178.952 214.957 178.952C215.685 178.952 216.329 179.111 216.889 179.428C217.449 179.745 217.878 180.184 218.177 180.744C218.485 181.295 218.639 181.92 218.639 182.62ZM217.323 182.354C217.323 181.869 217.215 181.453 217.001 181.108C216.786 180.753 216.492 180.487 216.119 180.31C215.755 180.123 215.349 180.03 214.901 180.03C214.257 180.03 213.706 180.235 213.249 180.646C212.801 181.057 212.544 181.626 212.479 182.354H217.323ZM225.327 180.324C225.551 179.885 225.868 179.545 226.279 179.302C226.699 179.059 227.207 178.938 227.805 178.938V180.254H227.469C226.041 180.254 225.327 181.029 225.327 182.578V186.75H224.053V179.078H225.327V180.324ZM232.621 186.876C231.903 186.876 231.249 186.713 230.661 186.386C230.083 186.059 229.625 185.597 229.289 185C228.963 184.393 228.799 183.693 228.799 182.9C228.799 182.116 228.967 181.425 229.303 180.828C229.649 180.221 230.115 179.759 230.703 179.442C231.291 179.115 231.949 178.952 232.677 178.952C233.405 178.952 234.063 179.115 234.651 179.442C235.239 179.759 235.701 180.217 236.037 180.814C236.383 181.411 236.555 182.107 236.555 182.9C236.555 183.693 236.378 184.393 236.023 185C235.678 185.597 235.207 186.059 234.609 186.386C234.012 186.713 233.349 186.876 232.621 186.876ZM232.621 185.756C233.079 185.756 233.508 185.649 233.909 185.434C234.311 185.219 234.633 184.897 234.875 184.468C235.127 184.039 235.253 183.516 235.253 182.9C235.253 182.284 235.132 181.761 234.889 181.332C234.647 180.903 234.329 180.585 233.937 180.38C233.545 180.165 233.121 180.058 232.663 180.058C232.197 180.058 231.767 180.165 231.375 180.38C230.993 180.585 230.685 180.903 230.451 181.332C230.218 181.761 230.101 182.284 230.101 182.9C230.101 183.525 230.213 184.053 230.437 184.482C230.671 184.911 230.979 185.233 231.361 185.448C231.744 185.653 232.164 185.756 232.621 185.756ZM241.576 186.876C240.858 186.876 240.204 186.713 239.616 186.386C239.038 186.059 238.58 185.597 238.244 185C237.918 184.393 237.754 183.693 237.754 182.9C237.754 182.116 237.922 181.425 238.258 180.828C238.604 180.221 239.07 179.759 239.658 179.442C240.246 179.115 240.904 178.952 241.632 178.952C242.36 178.952 243.018 179.115 243.606 179.442C244.194 179.759 244.656 180.217 244.992 180.814C245.338 181.411 245.51 182.107 245.51 182.9C245.51 183.693 245.333 184.393 244.978 185C244.633 185.597 244.162 186.059 243.564 186.386C242.967 186.713 242.304 186.876 241.576 186.876ZM241.576 185.756C242.034 185.756 242.463 185.649 242.864 185.434C243.266 185.219 243.588 184.897 243.83 184.468C244.082 184.039 244.208 183.516 244.208 182.9C244.208 182.284 244.087 181.761 243.844 181.332C243.602 180.903 243.284 180.585 242.892 180.38C242.5 180.165 242.076 180.058 241.618 180.058C241.152 180.058 240.722 180.165 240.33 180.38C239.948 180.585 239.64 180.903 239.406 181.332C239.173 181.761 239.056 182.284 239.056 182.9C239.056 183.525 239.168 184.053 239.392 184.482C239.626 184.911 239.934 185.233 240.316 185.448C240.699 185.653 241.119 185.756 241.576 185.756ZM256.411 178.938C257.009 178.938 257.541 179.064 258.007 179.316C258.474 179.559 258.843 179.927 259.113 180.422C259.384 180.917 259.519 181.519 259.519 182.228V186.75H258.259V182.41C258.259 181.645 258.068 181.061 257.685 180.66C257.312 180.249 256.803 180.044 256.159 180.044C255.497 180.044 254.969 180.259 254.577 180.688C254.185 181.108 253.989 181.719 253.989 182.522V186.75H252.729V182.41C252.729 181.645 252.538 181.061 252.155 180.66C251.782 180.249 251.273 180.044 250.629 180.044C249.967 180.044 249.439 180.259 249.047 180.688C248.655 181.108 248.459 181.719 248.459 182.522V186.75H247.185V179.078H248.459V180.184C248.711 179.783 249.047 179.475 249.467 179.26C249.897 179.045 250.368 178.938 250.881 178.938C251.525 178.938 252.095 179.083 252.589 179.372C253.084 179.661 253.453 180.086 253.695 180.646C253.91 180.105 254.265 179.685 254.759 179.386C255.254 179.087 255.805 178.938 256.411 178.938ZM270.835 178.938C271.433 178.938 271.965 179.064 272.431 179.316C272.898 179.559 273.267 179.927 273.537 180.422C273.808 180.917 273.943 181.519 273.943 182.228V186.75H272.683V182.41C272.683 181.645 272.492 181.061 272.109 180.66C271.736 180.249 271.227 180.044 270.583 180.044C269.921 180.044 269.393 180.259 269.001 180.688C268.609 181.108 268.413 181.719 268.413 182.522V186.75H267.153V182.41C267.153 181.645 266.962 181.061 266.579 180.66C266.206 180.249 265.697 180.044 265.053 180.044C264.391 180.044 263.863 180.259 263.471 180.688C263.079 181.108 262.883 181.719 262.883 182.522V186.75H261.609V179.078H262.883V180.184C263.135 179.783 263.471 179.475 263.891 179.26C264.321 179.045 264.792 178.938 265.305 178.938C265.949 178.938 266.519 179.083 267.013 179.372C267.508 179.661 267.877 180.086 268.119 180.646C268.334 180.105 268.689 179.685 269.183 179.386C269.678 179.087 270.229 178.938 270.835 178.938ZM275.557 182.886C275.557 182.102 275.716 181.416 276.033 180.828C276.35 180.231 276.784 179.769 277.335 179.442C277.895 179.115 278.516 178.952 279.197 178.952C279.869 178.952 280.452 179.097 280.947 179.386C281.442 179.675 281.81 180.039 282.053 180.478V179.078H283.341V186.75H282.053V185.322C281.801 185.77 281.423 186.143 280.919 186.442C280.424 186.731 279.846 186.876 279.183 186.876C278.502 186.876 277.886 186.708 277.335 186.372C276.784 186.036 276.35 185.565 276.033 184.958C275.716 184.351 275.557 183.661 275.557 182.886ZM282.053 182.9C282.053 182.321 281.936 181.817 281.703 181.388C281.47 180.959 281.152 180.632 280.751 180.408C280.359 180.175 279.925 180.058 279.449 180.058C278.973 180.058 278.539 180.17 278.147 180.394C277.755 180.618 277.442 180.945 277.209 181.374C276.976 181.803 276.859 182.307 276.859 182.886C276.859 183.474 276.976 183.987 277.209 184.426C277.442 184.855 277.755 185.187 278.147 185.42C278.539 185.644 278.973 185.756 279.449 185.756C279.925 185.756 280.359 185.644 280.751 185.42C281.152 185.187 281.47 184.855 281.703 184.426C281.936 183.987 282.053 183.479 282.053 182.9ZM287.048 180.128V184.65C287.048 185.023 287.127 185.289 287.286 185.448C287.445 185.597 287.72 185.672 288.112 185.672H289.05V186.75H287.902C287.193 186.75 286.661 186.587 286.306 186.26C285.951 185.933 285.774 185.397 285.774 184.65V180.128H284.78V179.078H285.774V177.146H287.048V179.078H289.05V180.128H287.048ZM297.594 182.62C297.594 182.863 297.58 183.119 297.552 183.39H291.42C291.466 184.146 291.723 184.739 292.19 185.168C292.666 185.588 293.24 185.798 293.912 185.798C294.462 185.798 294.92 185.672 295.284 185.42C295.657 185.159 295.918 184.813 296.068 184.384H297.44C297.234 185.121 296.824 185.723 296.208 186.19C295.592 186.647 294.826 186.876 293.912 186.876C293.184 186.876 292.53 186.713 291.952 186.386C291.382 186.059 290.934 185.597 290.608 185C290.281 184.393 290.118 183.693 290.118 182.9C290.118 182.107 290.276 181.411 290.594 180.814C290.911 180.217 291.354 179.759 291.924 179.442C292.502 179.115 293.165 178.952 293.912 178.952C294.64 178.952 295.284 179.111 295.844 179.428C296.404 179.745 296.833 180.184 297.132 180.744C297.44 181.295 297.594 181.92 297.594 182.62ZM296.278 182.354C296.278 181.869 296.17 181.453 295.956 181.108C295.741 180.753 295.447 180.487 295.074 180.31C294.71 180.123 294.304 180.03 293.856 180.03C293.212 180.03 292.661 180.235 292.204 180.646C291.756 181.057 291.499 181.626 291.434 182.354H296.278ZM300.927 176.992L300.773 183.992H299.709L299.555 176.992H300.927ZM300.297 186.834C300.055 186.834 299.849 186.75 299.681 186.582C299.513 186.414 299.429 186.209 299.429 185.966C299.429 185.723 299.513 185.518 299.681 185.35C299.849 185.182 300.055 185.098 300.297 185.098C300.531 185.098 300.727 185.182 300.885 185.35C301.053 185.518 301.137 185.723 301.137 185.966C301.137 186.209 301.053 186.414 300.885 186.582C300.727 186.75 300.531 186.834 300.297 186.834Z" fill="#BBBEFA"/>
</svg>
