<svg width="135" height="41" viewBox="0 0 135 41" fill="none" xmlns="http://www.w3.org/2000/svg">
<g clip-path="url(#clip0_7_33)">
<path d="M0 31.6754V0.435608H3.97078V11.5627C5.51447 9.51039 7.74524 8.48424 10.6542 8.48424C13.1973 8.48424 15.205 9.25162 16.6773 10.7864C18.1674 12.3212 18.8991 14.4002 18.8991 17.0147V31.6754H14.9373V17.4163C14.9373 15.7833 14.4911 14.5162 13.5988 13.615C12.6976 12.7049 11.4662 12.2498 9.88679 12.2498C7.99509 12.2498 6.5317 12.8298 5.50555 13.9719C4.47939 15.123 3.97078 16.7827 3.97078 18.9421V31.6754H0Z" fill="white"/>
<path d="M41.6798 29.7123C39.3687 32.0055 36.549 33.1566 33.2118 33.1566C29.8745 33.1566 27.0459 32.0055 24.7348 29.7123C22.4237 27.4101 21.2637 24.6083 21.2637 21.2978C21.2637 17.9873 22.4237 15.1855 24.7348 12.8833C27.0459 10.5901 29.8745 9.439 33.2118 9.439C36.549 9.439 39.3687 10.5901 41.6798 12.8833C43.9998 15.1855 45.1509 17.9873 45.1509 21.2978C45.1509 24.6083 43.9998 27.4101 41.6798 29.7123ZM33.2207 29.3464C35.4336 29.3464 37.3164 28.5701 38.869 26.9996C40.4127 25.4381 41.1979 23.5286 41.1979 21.2889C41.1979 19.0492 40.4216 17.1396 38.869 15.5781C37.3253 14.0165 35.4336 13.2313 33.2207 13.2313C31.0078 13.2313 29.0893 14.0076 27.5456 15.5781C26.0108 17.1307 25.2434 19.0402 25.2434 21.2889C25.2434 23.5375 26.0108 25.4292 27.5456 26.9996C29.0804 28.5612 30.9721 29.3464 33.2207 29.3464Z" fill="white"/>
<path d="M80.6648 31.7378V9.07315H84.6266V31.7467H80.6648V31.7378Z" fill="white"/>
<path d="M98.386 41C96.2891 41 94.4777 40.6163 92.9786 39.8578C91.4795 39.0994 89.9091 37.8858 88.2583 36.235L91.0155 33.4332C92.2915 34.736 93.4783 35.6907 94.558 36.2975C95.6377 36.8953 96.9226 37.1987 98.3771 37.1987C100.385 37.1987 102.062 36.6366 103.41 35.5123C104.757 34.3969 105.435 32.996 105.435 31.3095C105.435 29.7836 104.873 28.5433 103.749 27.5796C101.982 28.8646 99.9743 29.507 97.7079 29.507C94.7454 29.507 92.238 28.4987 90.1946 26.4821C88.1512 24.4655 87.134 21.9759 87.134 19.0135C87.134 16.051 88.1512 13.5615 90.1946 11.527C92.238 9.49253 94.7454 8.48422 97.7079 8.48422C98.8233 8.48422 99.9476 8.65376 101.072 9.00176H109.763V12.5621H105.837C107.497 14.3556 108.317 16.5061 108.317 19.0135C108.317 21.1193 107.72 23.0646 106.515 24.8581C108.407 26.5446 109.361 28.6861 109.361 31.3095C109.361 33.9329 108.3 36.3332 106.167 38.1981C104.052 40.063 101.456 41 98.3771 41H98.386ZM92.9072 23.8409C94.21 25.1615 95.8162 25.8218 97.7168 25.8218C99.6174 25.8218 101.206 25.1615 102.526 23.8409C103.829 22.5202 104.489 20.9141 104.489 19.0135C104.489 17.1129 103.829 15.471 102.526 14.1415C101.215 12.8208 99.6085 12.1605 97.7168 12.1605C95.8251 12.1605 94.2189 12.8208 92.9072 14.1415C91.6045 15.4621 90.9442 17.0861 90.9442 19.0135C90.9442 20.9409 91.6045 22.5113 92.9072 23.8409Z" fill="white"/>
<path d="M131.393 28.7486C129.09 31.0418 126.262 32.1929 122.925 32.1929C119.587 32.1929 116.768 31.0418 114.457 28.7486C112.136 26.4464 110.985 23.6446 110.985 20.3341C110.985 17.0236 112.136 14.2218 114.457 11.9196C116.768 9.62639 119.587 8.47531 122.925 8.47531C126.262 8.47531 129.09 9.62639 131.393 11.9196C133.713 14.2218 134.873 17.0236 134.873 20.3341C134.873 23.6446 133.713 26.4464 131.393 28.7486ZM122.925 28.3917C125.146 28.3917 127.02 27.6153 128.573 26.0449C130.117 24.4833 130.902 22.5738 130.902 20.3341C130.902 18.0944 130.125 16.1849 128.573 14.6233C127.029 13.0618 125.146 12.2765 122.925 12.2765C120.703 12.2765 118.793 13.0529 117.258 14.6233C115.724 16.1759 114.947 18.0855 114.947 20.3341C114.947 22.5827 115.715 24.4744 117.258 26.0449C118.793 27.6064 120.685 28.3917 122.925 28.3917Z" fill="white"/>
<path d="M77.274 9.46579V31.2471H73.0266V13.8024H64.5229V31.2471H60.2755V13.8024H51.7718V31.2471H47.5244V13.0975C47.5244 11.063 49.1216 9.46579 51.1561 9.46579H77.274Z" fill="white"/>
</g>
<defs>
<clipPath id="clip0_7_33">
<rect width="134.873" height="40.5644" fill="white" transform="translate(0 0.435608)"/>
</clipPath>
</defs>
</svg>
