<svg width="170" height="68" viewBox="0 0 170 68" fill="none" xmlns="http://www.w3.org/2000/svg">
<g clip-path="url(#clip0_283_485)">
<path d="M74.8678 7.15532C78.543 6.67984 81.3894 9.72448 80.2257 12.9685C79.69 14.4717 77.4296 15.1926 77.7644 18.1605C78.0658 20.8371 81.649 21.3662 80.1085 25.2698C78.6686 28.9127 72.8167 28.8973 71.36 25.2698C70.0372 21.9874 72.8083 20.7604 73.4529 19.1729C75.2529 14.7401 69.694 14.3106 71.293 9.97757C71.7618 8.71216 73.3943 7.34705 74.8678 7.15532Z" fill="white"/>
<path d="M94.3741 7.15532C98.0494 6.67984 100.896 9.72448 99.7321 12.9685C99.1963 14.4717 96.9359 15.1926 97.2708 18.1605C97.5722 20.8371 101.155 21.3662 99.6149 25.2698C98.1749 28.9127 92.323 28.8973 90.8663 25.2698C89.5436 21.9874 92.3147 20.7604 92.9593 19.1729C94.7592 14.7401 89.2003 14.3106 90.7994 9.97757C91.2682 8.71216 92.9007 7.34705 94.3741 7.15532Z" fill="white"/>
<path d="M84.621 0.0456444C88.2962 -0.429842 91.1426 2.6148 89.9789 5.85885C89.4431 7.362 87.1827 8.08289 87.5176 11.0508C87.819 13.7274 91.4021 14.2565 89.8617 18.1601C88.4218 21.803 82.5699 21.7876 81.1132 18.1601C79.7904 14.8777 82.5615 13.6507 83.2061 12.0632C85.0061 7.63042 79.4472 7.20094 81.0462 2.86789C81.515 1.60248 83.1475 0.237373 84.621 0.0456444Z" fill="white"/>
</g>
<path d="M14.1727 52.2798C14.1727 49.1947 14.1727 45.9333 17.8853 43.7296C19.0941 43.0244 20.5619 42.6718 21.9433 42.6718C23.3248 42.6718 24.7926 43.0244 26.0014 43.7296C29.714 45.8451 29.714 49.1947 29.714 52.2798V62.593H24.7062V51.5747C24.7062 50.2525 24.4472 47.6962 21.857 47.6962C19.2668 47.6962 19.0078 50.2525 19.0078 51.5747V62.593H14V52.2798H14.1727Z" fill="#FAFAFA"/>
<path d="M51.4719 54.3072C50.6085 60.0367 45.8597 63.0337 41.4563 63.0337C35.8442 63.0337 31.5272 58.6264 31.5272 52.8968C31.5272 47.1673 35.8442 42.7599 41.4563 42.7599C45.5144 42.7599 48.709 44.8755 50.4358 48.4895L40.7656 55.8938L38.3481 52.6324L43.2695 48.7539C42.6651 47.9606 41.629 47.6962 40.852 47.6962C38.3481 47.6962 36.4486 49.988 36.4486 52.8968C36.4486 56.4227 39.2978 58.1857 41.629 58.1857C43.9602 58.1857 45.9461 56.5109 46.3778 53.8665L51.3855 54.3953L51.4719 54.3072Z" fill="#FAFAFA"/>
<path d="M52.3353 57.5686H58.2928C59.0699 57.5686 60.2786 57.5686 60.2786 56.5109C60.2786 55.1887 58.2928 54.3953 57.1704 53.8665C54.6665 52.7206 52.5943 51.7509 52.5943 48.6658C52.5943 45.7569 54.2348 43.2007 58.6382 43.2007H64.7684V48.1369H59.0699C58.4655 48.1369 57.5157 48.0488 57.5157 48.8421C57.5157 49.5473 58.0338 49.8117 59.8469 50.605C62.6962 51.9272 65.5454 53.1613 65.5454 56.7753C65.5454 58.4501 64.941 62.5049 58.1201 62.5049H52.4216V57.5686H52.3353Z" fill="#FAFAFA"/>
<path d="M75.6473 43.2007V48.1369H72.021V55.0124C72.021 56.1583 72.021 57.5686 74.3522 57.5686H75.6473V62.5048H74.3522C72.8844 62.5048 70.8985 62.593 69.2581 61.4471C66.9269 59.7723 67.0132 56.9516 67.0132 54.9242V38H72.021V43.2007H75.6473Z" fill="#FAFAFA"/>
<path d="M76.856 50.7813C76.856 48.4014 76.9424 45.5807 80.3097 43.6414C81.4321 43.0244 82.7272 42.6718 83.936 42.6718C85.9218 42.6718 88.1667 43.4651 89.8935 45.6688C92.57 42.1429 96.8871 42.1429 99.4773 43.6414C102.845 45.5807 102.931 48.4014 102.931 50.7813V62.5049H97.9232V50.8695C97.9232 48.4014 96.1964 47.608 95.1603 47.608C94.3832 47.608 92.311 48.0488 92.311 51.3102V62.5049H87.3033V51.3102C87.3033 48.0488 85.3174 47.608 84.454 47.608C83.4179 47.608 81.6911 48.4014 81.6911 50.8695V62.5049H76.6833V50.7813H76.856Z" fill="#FAFAFA"/>
<path d="M119.595 54.3953C119.595 51.7509 119.077 47.6962 114.76 47.6962C111.997 47.6962 109.838 49.8117 109.838 53.0731C109.838 55.1886 111.047 58.1856 115.105 58.1856C116.832 58.1856 117.609 57.7449 118.127 57.3042V62.4167C117.264 62.7693 116.055 63.21 114.501 63.21C109.752 63.21 104.83 59.6841 104.83 53.4257C104.83 48.4013 108.37 42.9362 114.932 42.9362C118.559 42.9362 124.689 44.6992 124.689 54.219V62.7693H119.681V54.5716L119.595 54.3953Z" fill="#FAFAFA"/>
<path d="M135.481 43.2007V48.1369H131.855V55.0124C131.855 56.1583 131.855 57.5686 134.186 57.5686H135.481V62.5048H134.186C132.719 62.5048 130.733 62.593 129.092 61.4471C126.761 59.7723 126.847 56.9516 126.847 54.9242V38H131.855V43.2007H135.481Z" fill="#FAFAFA"/>
<path d="M156.03 54.3072C155.167 60.0367 150.418 63.0337 146.015 63.0337C140.403 63.0337 136.086 58.6264 136.086 52.8968C136.086 47.1673 140.403 42.7599 146.015 42.7599C149.987 42.7599 153.268 44.8755 154.994 48.4895L145.324 55.8938L142.907 52.6324L147.828 48.7539C147.224 47.9606 146.188 47.6962 145.411 47.6962C142.993 47.6962 141.007 49.988 141.007 52.8968C141.007 56.4227 143.856 58.1857 146.188 58.1857C148.519 58.1857 150.505 56.5109 151.023 53.8665L156.03 54.3953V54.3072Z" fill="#FAFAFA"/>
<defs>
<clipPath id="clip0_283_485">
<rect width="29" height="28" fill="white" transform="translate(71)"/>
</clipPath>
</defs>
</svg>
