<svg width="29" height="30" viewBox="0 0 29 30" fill="none" xmlns="http://www.w3.org/2000/svg">
<g clip-path="url(#clip0_12_245)">
<path d="M3.86778 7.66638C7.54301 7.15693 10.3894 10.4191 9.22575 13.8948C8.68995 15.5053 6.42956 16.2777 6.76443 19.4577C7.06582 22.3254 10.649 22.8923 9.10854 27.0748C7.66859 30.9778 1.81668 30.9614 0.359985 27.0748C-0.962763 23.5579 1.80831 22.2432 2.45294 20.5423C4.25288 15.7929 -1.30601 15.3328 0.29301 10.6902C0.761833 9.33442 2.39434 7.8718 3.86778 7.66638Z" fill="white"/>
<path d="M23.3741 7.66638C27.0494 7.15693 29.8958 10.4191 28.7321 13.8948C28.1963 15.5053 25.9359 16.2777 26.2708 19.4577C26.5722 22.3254 30.1553 22.8923 28.6149 27.0748C27.1749 30.9778 21.323 30.9614 19.8663 27.0748C18.5436 23.5579 21.3147 22.2432 21.9593 20.5423C23.7592 15.7929 18.2003 15.3328 19.7994 10.6902C20.2682 9.33442 21.9007 7.8718 23.3741 7.66638Z" fill="white"/>
<path d="M13.621 0.0491924C17.2962 -0.460257 20.1426 2.80186 18.9789 6.27762C18.4431 7.88814 16.1827 8.66053 16.5176 11.8405C16.819 14.7082 20.4021 15.2752 18.8617 19.4576C17.4218 23.3606 11.5699 23.3442 10.1132 19.4576C8.79041 15.9407 11.5615 14.626 12.2061 12.9251C14.0061 8.17573 8.44717 7.71559 10.0462 3.07302C10.515 1.71723 12.1475 0.254616 13.621 0.0491924Z" fill="white"/>
</g>
<defs>
<clipPath id="clip0_12_245">
<rect width="29" height="30" fill="white"/>
</clipPath>
</defs>
</svg>
