<?xml version="1.0" encoding="UTF-8"?>
<svg xmlns="http://www.w3.org/2000/svg" xmlns:xlink="http://www.w3.org/1999/xlink" width="81px" height="58px" viewBox="0 0 81 58" version="1.1">
<g id="surface1">
<path style=" stroke:none;fill-rule:nonzero;fill:rgb(91.764706%,91.764706%,91.764706%);fill-opacity:1;" d="M 46.488281 6.972656 C 53.90625 12.609375 53.195312 23.453125 44.984375 27.542969 C 41.1875 29.441406 35.808594 26.789062 30.789062 33.023438 C 26.25 38.632812 31.605469 46.015625 21.480469 50.6875 C 12.027344 55.039062 1.671875 44.597656 5.957031 35.121094 C 9.824219 26.535156 17.070312 29.136719 21.214844 27.273438 C 32.804688 22.054688 23.753906 11.351562 34.800781 5.96875 C 38.023438 4.402344 43.507812 4.71875 46.488281 6.972656 Z M 46.488281 6.972656 "/>
<path style=" stroke:none;fill-rule:nonzero;fill:rgb(91.764706%,91.764706%,91.764706%);fill-opacity:1;" d="M 74.042969 46.53125 C 68.421875 53.972656 57.601562 53.257812 53.523438 45.03125 C 51.628906 41.222656 54.273438 35.832031 48.058594 30.796875 C 42.460938 26.246094 35.097656 31.617188 30.4375 21.46875 C 26.097656 11.992188 36.511719 1.609375 45.964844 5.902344 C 54.527344 9.78125 51.9375 17.042969 53.792969 21.199219 C 59 32.816406 69.675781 23.742188 75.042969 34.816406 C 76.609375 38.050781 76.292969 43.546875 74.042969 46.53125 Z M 74.042969 46.53125 "/>
</g>
</svg>
