<svg width="228" height="143" viewBox="0 0 228 143" fill="none" xmlns="http://www.w3.org/2000/svg">
<path d="M54.2435 44.3063V69.9995H47.9849V44.3063H54.2435ZM70.1617 64.6925V69.9995H66.9775C64.7083 69.9995 62.9393 69.4505 61.6705 68.3525C60.4017 67.2301 59.7673 65.4123 59.7673 62.8991V54.7739H57.2785V49.5767H59.7673V44.5991H66.0259V49.5767H70.1251V54.7739H66.0259V62.9723C66.0259 63.5823 66.1723 64.0215 66.4651 64.2899C66.7579 64.5583 67.2459 64.6925 67.9291 64.6925H70.1617ZM75.0752 44.3063H81.4802L77.381 54.1151H73.172L75.0752 44.3063ZM93.465 70.2923C91.6838 70.2923 90.0978 69.9873 88.707 69.3773C87.3162 68.7673 86.2182 67.9377 85.413 66.8885C84.6078 65.8149 84.1564 64.6193 84.0588 63.3017H90.2442C90.3174 64.0093 90.6468 64.5827 91.2324 65.0219C91.818 65.4611 92.5378 65.6807 93.3918 65.6807C94.1726 65.6807 94.7704 65.5343 95.1852 65.2415C95.6244 64.9243 95.844 64.5217 95.844 64.0337C95.844 63.4481 95.539 63.0211 94.929 62.7527C94.319 62.4599 93.3308 62.1427 91.9644 61.8011C90.5004 61.4595 89.2804 61.1057 88.3044 60.7397C87.3284 60.3493 86.4866 59.7515 85.779 58.9463C85.0714 58.1167 84.7176 57.0065 84.7176 55.6157C84.7176 54.4445 85.0348 53.3831 85.6692 52.4315C86.328 51.4555 87.2796 50.6869 88.524 50.1257C89.7928 49.5645 91.2934 49.2839 93.0258 49.2839C95.5878 49.2839 97.6008 49.9183 99.0648 51.1871C100.553 52.4559 101.407 54.1395 101.627 56.2379H95.844C95.7464 55.5303 95.4292 54.9691 94.8924 54.5543C94.38 54.1395 93.6968 53.9321 92.8428 53.9321C92.1108 53.9321 91.5496 54.0785 91.1592 54.3713C90.7688 54.6397 90.5736 55.0179 90.5736 55.5059C90.5736 56.0915 90.8786 56.5307 91.4886 56.8235C92.123 57.1163 93.099 57.4091 94.4166 57.7019C95.9294 58.0923 97.1616 58.4827 98.1132 58.8731C99.0648 59.2391 99.8944 59.8491 100.602 60.7031C101.334 61.5327 101.712 62.6551 101.737 64.0703C101.737 65.2659 101.395 66.3395 100.712 67.2911C100.053 68.2183 99.0892 68.9503 97.8204 69.4871C96.576 70.0239 95.1242 70.2923 93.465 70.2923ZM131.805 44.3063V49.3205H124.997V69.9995H118.738V49.3205H111.931V44.3063H131.805ZM144.242 70.2923C142.241 70.2923 140.436 69.8653 138.825 69.0113C137.239 68.1573 135.983 66.9373 135.055 65.3513C134.153 63.7653 133.701 61.9109 133.701 59.7881C133.701 57.6897 134.165 55.8475 135.092 54.2615C136.019 52.6511 137.288 51.4189 138.898 50.5649C140.509 49.7109 142.314 49.2839 144.315 49.2839C146.316 49.2839 148.122 49.7109 149.732 50.5649C151.342 51.4189 152.611 52.6511 153.538 54.2615C154.466 55.8475 154.929 57.6897 154.929 59.7881C154.929 61.8865 154.453 63.7409 153.502 65.3513C152.575 66.9373 151.294 68.1573 149.659 69.0113C148.048 69.8653 146.243 70.2923 144.242 70.2923ZM144.242 64.8755C145.438 64.8755 146.45 64.4363 147.28 63.5579C148.134 62.6795 148.561 61.4229 148.561 59.7881C148.561 58.1533 148.146 56.8967 147.316 56.0183C146.511 55.1399 145.511 54.7007 144.315 54.7007C143.095 54.7007 142.083 55.1399 141.277 56.0183C140.472 56.8723 140.07 58.1289 140.07 59.7881C140.07 61.4229 140.46 62.6795 141.241 63.5579C142.046 64.4363 143.046 64.8755 144.242 64.8755ZM167.546 70.2923C165.545 70.2923 163.74 69.8653 162.129 69.0113C160.543 68.1573 159.287 66.9373 158.359 65.3513C157.457 63.7653 157.005 61.9109 157.005 59.7881C157.005 57.6897 157.469 55.8475 158.396 54.2615C159.323 52.6511 160.592 51.4189 162.202 50.5649C163.813 49.7109 165.618 49.2839 167.619 49.2839C169.62 49.2839 171.426 49.7109 173.036 50.5649C174.646 51.4189 175.915 52.6511 176.842 54.2615C177.77 55.8475 178.233 57.6897 178.233 59.7881C178.233 61.8865 177.757 63.7409 176.806 65.3513C175.879 66.9373 174.598 68.1573 172.963 69.0113C171.352 69.8653 169.547 70.2923 167.546 70.2923ZM167.546 64.8755C168.742 64.8755 169.754 64.4363 170.584 63.5579C171.438 62.6795 171.865 61.4229 171.865 59.7881C171.865 58.1533 171.45 56.8967 170.62 56.0183C169.815 55.1399 168.815 54.7007 167.619 54.7007C166.399 54.7007 165.387 55.1399 164.581 56.0183C163.776 56.8723 163.374 58.1289 163.374 59.7881C163.374 61.4229 163.764 62.6795 164.545 63.5579C165.35 64.4363 166.35 64.8755 167.546 64.8755ZM20.66 111.392L17.366 106.963C16.39 107.158 15.4384 107.256 14.5112 107.256C12.0956 107.256 9.87523 106.695 7.85003 105.572C5.84923 104.45 4.25103 102.888 3.05543 100.887C1.88423 98.8621 1.29863 96.5929 1.29863 94.0797C1.29863 91.5665 1.88423 89.3095 3.05543 87.3087C4.25103 85.3079 5.84923 83.7463 7.85003 82.6239C9.87523 81.5015 12.0956 80.9403 14.5112 80.9403C16.9268 80.9403 19.135 81.5015 21.1358 82.6239C23.161 83.7463 24.747 85.3079 25.8938 87.3087C27.065 89.3095 27.6506 91.5665 27.6506 94.0797C27.6506 96.2757 27.1992 98.2887 26.2964 100.119C25.418 101.924 24.1858 103.425 22.5998 104.621L28.2362 111.392H20.66ZM7.70363 94.0797C7.70363 96.3489 8.31363 98.1667 9.53363 99.5331C10.778 100.875 12.4372 101.546 14.5112 101.546C16.5608 101.546 18.1956 100.863 19.4156 99.4965C20.66 98.1301 21.2822 96.3245 21.2822 94.0797C21.2822 91.8105 20.66 90.0049 19.4156 88.6629C18.1956 87.2965 16.5608 86.6133 14.5112 86.6133C12.4372 86.6133 10.778 87.2843 9.53363 88.6263C8.31363 89.9683 7.70363 91.7861 7.70363 94.0797ZM51.3706 86.5767V107H45.112V104.218C44.4776 105.121 43.6114 105.853 42.5134 106.414C41.4398 106.951 40.2442 107.219 38.9266 107.219C37.365 107.219 35.9864 106.878 34.7908 106.194C33.5952 105.487 32.668 104.474 32.0092 103.157C31.3504 101.839 31.021 100.29 31.021 98.5083V86.5767H37.243V97.6665C37.243 99.0329 37.5968 100.094 38.3044 100.851C39.012 101.607 39.9636 101.985 41.1592 101.985C42.3792 101.985 43.343 101.607 44.0506 100.851C44.7582 100.094 45.112 99.0329 45.112 97.6665V86.5767H51.3706ZM59.0137 84.4539C57.9157 84.4539 57.0129 84.1367 56.3053 83.5023C55.6221 82.8435 55.2805 82.0383 55.2805 81.0867C55.2805 80.1107 55.6221 79.3055 56.3053 78.6711C57.0129 78.0123 57.9157 77.6829 59.0137 77.6829C60.0873 77.6829 60.9657 78.0123 61.6489 78.6711C62.3565 79.3055 62.7103 80.1107 62.7103 81.0867C62.7103 82.0383 62.3565 82.8435 61.6489 83.5023C60.9657 84.1367 60.0873 84.4539 59.0137 84.4539ZM62.1247 86.5767V107H55.8661V86.5767H62.1247ZM85.9118 96.4587C85.9118 97.0443 85.8752 97.6543 85.802 98.2887H71.6378C71.7354 99.5575 72.138 100.534 72.8456 101.217C73.5776 101.876 74.4682 102.205 75.5174 102.205C77.079 102.205 78.1648 101.546 78.7748 100.229H85.436C85.0944 101.571 84.4722 102.778 83.5694 103.852C82.691 104.926 81.5808 105.767 80.2388 106.377C78.8968 106.987 77.3962 107.292 75.737 107.292C73.7362 107.292 71.955 106.865 70.3934 106.011C68.8318 105.157 67.6118 103.937 66.7334 102.351C65.855 100.765 65.4158 98.9109 65.4158 96.7881C65.4158 94.6653 65.8428 92.8109 66.6968 91.2249C67.5752 89.6389 68.7952 88.4189 70.3568 87.5649C71.9184 86.7109 73.7118 86.2839 75.737 86.2839C77.7134 86.2839 79.4702 86.6987 81.0074 87.5283C82.5446 88.3579 83.7402 89.5413 84.5942 91.0785C85.4726 92.6157 85.9118 94.4091 85.9118 96.4587ZM79.5068 94.8117C79.5068 93.7381 79.1408 92.8841 78.4088 92.2497C77.6768 91.6153 76.7618 91.2981 75.6638 91.2981C74.6146 91.2981 73.724 91.6031 72.992 92.2131C72.2844 92.8231 71.8452 93.6893 71.6744 94.8117H79.5068ZM100.596 101.693V107H97.4119C95.1427 107 93.3737 106.451 92.1049 105.353C90.8361 104.23 90.2017 102.412 90.2017 99.8991V91.7739H87.7129V86.5767H90.2017V81.5991H96.4603V86.5767H100.56V91.7739H96.4603V99.9723C96.4603 100.582 96.6067 101.022 96.8995 101.29C97.1923 101.558 97.6803 101.693 98.3635 101.693H100.596ZM134.091 81.3063V107H127.833V96.4221H118.097V107H111.838V81.3063H118.097V91.3713H127.833V81.3063H134.091ZM157.861 96.4587C157.861 97.0443 157.824 97.6543 157.751 98.2887H143.587C143.684 99.5575 144.087 100.534 144.795 101.217C145.527 101.876 146.417 102.205 147.466 102.205C149.028 102.205 150.114 101.546 150.724 100.229H157.385C157.043 101.571 156.421 102.778 155.518 103.852C154.64 104.926 153.53 105.767 152.188 106.377C150.846 106.987 149.345 107.292 147.686 107.292C145.685 107.292 143.904 106.865 142.342 106.011C140.781 105.157 139.561 103.937 138.682 102.351C137.804 100.765 137.365 98.9109 137.365 96.7881C137.365 94.6653 137.792 92.8109 138.646 91.2249C139.524 89.6389 140.744 88.4189 142.306 87.5649C143.867 86.7109 145.661 86.2839 147.686 86.2839C149.662 86.2839 151.419 86.6987 152.956 87.5283C154.494 88.3579 155.689 89.5413 156.543 91.0785C157.422 92.6157 157.861 94.4091 157.861 96.4587ZM151.456 94.8117C151.456 93.7381 151.09 92.8841 150.358 92.2497C149.626 91.6153 148.711 91.2981 147.613 91.2981C146.564 91.2981 145.673 91.6031 144.941 92.2131C144.233 92.8231 143.794 93.6893 143.623 94.8117H151.456ZM167.421 89.9805C168.153 88.8581 169.068 87.9797 170.166 87.3453C171.264 86.6865 172.484 86.3571 173.826 86.3571V92.9817H172.106C170.544 92.9817 169.373 93.3233 168.592 94.0065C167.812 94.6653 167.421 95.8365 167.421 97.5201V107H161.163V86.5767H167.421V89.9805ZM196.069 96.4587C196.069 97.0443 196.033 97.6543 195.959 98.2887H181.795C181.893 99.5575 182.295 100.534 183.003 101.217C183.735 101.876 184.626 102.205 185.675 102.205C187.236 102.205 188.322 101.546 188.932 100.229H195.593C195.252 101.571 194.63 102.778 193.727 103.852C192.848 104.926 191.738 105.767 190.396 106.377C189.054 106.987 187.554 107.292 185.894 107.292C183.894 107.292 182.112 106.865 180.551 106.011C178.989 105.157 177.769 103.937 176.891 102.351C176.012 100.765 175.573 98.9109 175.573 96.7881C175.573 94.6653 176 92.8109 176.854 91.2249C177.733 89.6389 178.953 88.4189 180.514 87.5649C182.076 86.7109 183.869 86.2839 185.894 86.2839C187.871 86.2839 189.628 86.6987 191.165 87.5283C192.702 88.3579 193.898 89.5413 194.752 91.0785C195.63 92.6157 196.069 94.4091 196.069 96.4587ZM189.664 94.8117C189.664 93.7381 189.298 92.8841 188.566 92.2497C187.834 91.6153 186.919 91.2981 185.821 91.2981C184.772 91.2981 183.881 91.6031 183.149 92.2131C182.442 92.8231 182.003 93.6893 181.832 94.8117H189.664ZM211.083 107.292C209.985 107.292 209.082 106.975 208.375 106.341C207.691 105.682 207.35 104.877 207.35 103.925C207.35 102.949 207.691 102.132 208.375 101.473C209.082 100.814 209.985 100.485 211.083 100.485C212.157 100.485 213.035 100.814 213.718 101.473C214.426 102.132 214.78 102.949 214.78 103.925C214.78 104.877 214.426 105.682 213.718 106.341C213.035 106.975 212.157 107.292 211.083 107.292ZM219.904 107.292C218.806 107.292 217.903 106.975 217.195 106.341C216.512 105.682 216.17 104.877 216.17 103.925C216.17 102.949 216.512 102.132 217.195 101.473C217.903 100.814 218.806 100.485 219.904 100.485C220.977 100.485 221.856 100.814 222.539 101.473C223.246 102.132 223.6 102.949 223.6 103.925C223.6 104.877 223.246 105.682 222.539 106.341C221.856 106.975 220.977 107.292 219.904 107.292ZM202.299 107.292C201.201 107.292 200.298 106.975 199.591 106.341C198.907 105.682 198.566 104.877 198.566 103.925C198.566 102.949 198.907 102.132 199.591 101.473C200.298 100.814 201.201 100.485 202.299 100.485C203.373 100.485 204.251 100.814 204.934 101.473C205.642 102.132 205.996 102.949 205.996 103.925C205.996 104.877 205.642 105.682 204.934 106.341C204.251 106.975 203.373 107.292 202.299 107.292Z" fill="#232BEB"/>
<path d="M11.47 132.07C11.1993 131.5 10.8073 131.062 10.294 130.754C9.78067 130.436 9.18333 130.278 8.502 130.278C7.82067 130.278 7.20467 130.436 6.654 130.754C6.11267 131.062 5.68333 131.51 5.366 132.098C5.058 132.676 4.904 133.348 4.904 134.114C4.904 134.879 5.058 135.551 5.366 136.13C5.68333 136.708 6.11267 137.156 6.654 137.474C7.20467 137.782 7.82067 137.936 8.502 137.936C9.454 137.936 10.238 137.651 10.854 137.082C11.47 136.512 11.8293 135.742 11.932 134.772H8.04V133.736H13.29V134.716C13.2153 135.518 12.9633 136.256 12.534 136.928C12.1047 137.59 11.54 138.118 10.84 138.51C10.14 138.892 9.36067 139.084 8.502 139.084C7.59667 139.084 6.77067 138.874 6.024 138.454C5.27733 138.024 4.68467 137.432 4.246 136.676C3.81667 135.92 3.602 135.066 3.602 134.114C3.602 133.162 3.81667 132.308 4.246 131.552C4.68467 130.786 5.27733 130.194 6.024 129.774C6.77067 129.344 7.59667 129.13 8.502 129.13C9.538 129.13 10.4527 129.386 11.246 129.9C12.0487 130.413 12.632 131.136 12.996 132.07H11.47ZM18.3205 139.126C17.6018 139.126 16.9485 138.962 16.3605 138.636C15.7818 138.309 15.3245 137.847 14.9885 137.25C14.6618 136.643 14.4985 135.943 14.4985 135.15C14.4985 134.366 14.6665 133.675 15.0025 133.078C15.3478 132.471 15.8145 132.009 16.4025 131.692C16.9905 131.365 17.6485 131.202 18.3765 131.202C19.1045 131.202 19.7625 131.365 20.3505 131.692C20.9385 132.009 21.4005 132.466 21.7365 133.064C22.0818 133.661 22.2545 134.356 22.2545 135.15C22.2545 135.943 22.0772 136.643 21.7225 137.25C21.3772 137.847 20.9058 138.309 20.3085 138.636C19.7112 138.962 19.0485 139.126 18.3205 139.126ZM18.3205 138.006C18.7778 138.006 19.2072 137.898 19.6085 137.684C20.0098 137.469 20.3318 137.147 20.5745 136.718C20.8265 136.288 20.9525 135.766 20.9525 135.15C20.9525 134.534 20.8312 134.011 20.5885 133.582C20.3458 133.152 20.0285 132.835 19.6365 132.63C19.2445 132.415 18.8198 132.308 18.3625 132.308C17.8958 132.308 17.4665 132.415 17.0745 132.63C16.6918 132.835 16.3838 133.152 16.1505 133.582C15.9172 134.011 15.8005 134.534 15.8005 135.15C15.8005 135.775 15.9125 136.302 16.1365 136.732C16.3698 137.161 16.6778 137.483 17.0605 137.698C17.4432 137.903 17.8632 138.006 18.3205 138.006ZM33.43 136.83H29.174L28.39 139H27.046L30.574 129.298H32.044L35.558 139H34.214L33.43 136.83ZM33.066 135.794L31.302 130.866L29.538 135.794H33.066ZM40.9036 131.188C41.4822 131.188 42.0049 131.314 42.4716 131.566C42.9382 131.808 43.3022 132.177 43.5636 132.672C43.8342 133.166 43.9696 133.768 43.9696 134.478V139H42.7096V134.66C42.7096 133.894 42.5182 133.311 42.1356 132.91C41.7529 132.499 41.2302 132.294 40.5676 132.294C39.8956 132.294 39.3589 132.504 38.9576 132.924C38.5656 133.344 38.3696 133.955 38.3696 134.758V139H37.0956V128.64H38.3696V132.42C38.6216 132.028 38.9669 131.724 39.4056 131.51C39.8536 131.295 40.3529 131.188 40.9036 131.188ZM53.0507 134.87C53.0507 135.112 53.0367 135.369 53.0087 135.64H46.8767C46.9233 136.396 47.18 136.988 47.6467 137.418C48.1227 137.838 48.6967 138.048 49.3687 138.048C49.9193 138.048 50.3767 137.922 50.7407 137.67C51.114 137.408 51.3753 137.063 51.5247 136.634H52.8967C52.6913 137.371 52.2807 137.973 51.6647 138.44C51.0487 138.897 50.2833 139.126 49.3687 139.126C48.6407 139.126 47.9873 138.962 47.4087 138.636C46.8393 138.309 46.3913 137.847 46.0647 137.25C45.738 136.643 45.5747 135.943 45.5747 135.15C45.5747 134.356 45.7333 133.661 46.0507 133.064C46.368 132.466 46.8113 132.009 47.3807 131.692C47.9593 131.365 48.622 131.202 49.3687 131.202C50.0967 131.202 50.7407 131.36 51.3007 131.678C51.8607 131.995 52.29 132.434 52.5887 132.994C52.8967 133.544 53.0507 134.17 53.0507 134.87ZM51.7347 134.604C51.7347 134.118 51.6273 133.703 51.4127 133.358C51.198 133.003 50.904 132.737 50.5307 132.56C50.1667 132.373 49.7607 132.28 49.3127 132.28C48.6687 132.28 48.118 132.485 47.6607 132.896C47.2127 133.306 46.956 133.876 46.8907 134.604H51.7347ZM54.2563 135.136C54.2563 134.352 54.415 133.666 54.7323 133.078C55.0496 132.48 55.4836 132.018 56.0343 131.692C56.5943 131.365 57.215 131.202 57.8963 131.202C58.5683 131.202 59.1516 131.346 59.6463 131.636C60.141 131.925 60.5096 132.289 60.7523 132.728V131.328H62.0403V139H60.7523V137.572C60.5003 138.02 60.1223 138.393 59.6183 138.692C59.1236 138.981 58.545 139.126 57.8823 139.126C57.201 139.126 56.585 138.958 56.0343 138.622C55.4836 138.286 55.0496 137.814 54.7323 137.208C54.415 136.601 54.2563 135.91 54.2563 135.136ZM60.7523 135.15C60.7523 134.571 60.6356 134.067 60.4023 133.638C60.169 133.208 59.8516 132.882 59.4503 132.658C59.0583 132.424 58.6243 132.308 58.1483 132.308C57.6723 132.308 57.2383 132.42 56.8463 132.644C56.4543 132.868 56.1416 133.194 55.9083 133.624C55.675 134.053 55.5583 134.557 55.5583 135.136C55.5583 135.724 55.675 136.237 55.9083 136.676C56.1416 137.105 56.4543 137.436 56.8463 137.67C57.2383 137.894 57.6723 138.006 58.1483 138.006C58.6243 138.006 59.0583 137.894 59.4503 137.67C59.8516 137.436 60.169 137.105 60.4023 136.676C60.6356 136.237 60.7523 135.728 60.7523 135.15ZM63.7172 135.136C63.7172 134.352 63.8759 133.666 64.1932 133.078C64.5106 132.48 64.9446 132.018 65.4952 131.692C66.0552 131.365 66.6806 131.202 67.3712 131.202C67.9686 131.202 68.5239 131.342 69.0372 131.622C69.5506 131.892 69.9426 132.252 70.2132 132.7V128.64H71.5012V139H70.2132V137.558C69.9612 138.015 69.5879 138.393 69.0932 138.692C68.5986 138.981 68.0199 139.126 67.3572 139.126C66.6759 139.126 66.0552 138.958 65.4952 138.622C64.9446 138.286 64.5106 137.814 64.1932 137.208C63.8759 136.601 63.7172 135.91 63.7172 135.136ZM70.2132 135.15C70.2132 134.571 70.0966 134.067 69.8632 133.638C69.6299 133.208 69.3126 132.882 68.9112 132.658C68.5192 132.424 68.0852 132.308 67.6092 132.308C67.1332 132.308 66.6992 132.42 66.3072 132.644C65.9152 132.868 65.6026 133.194 65.3692 133.624C65.1359 134.053 65.0192 134.557 65.0192 135.136C65.0192 135.724 65.1359 136.237 65.3692 136.676C65.6026 137.105 65.9152 137.436 66.3072 137.67C66.6992 137.894 67.1332 138.006 67.6092 138.006C68.0852 138.006 68.5192 137.894 68.9112 137.67C69.3126 137.436 69.6299 137.105 69.8632 136.676C70.0966 136.237 70.2132 135.728 70.2132 135.15ZM74.9702 137.236L73.4022 141.002H72.5482L73.5702 137.236H74.9702ZM90.06 129.312V139H88.786V131.776L85.566 139H84.67L81.436 131.762V139H80.162V129.312H81.534L85.118 137.32L88.702 129.312H90.06ZM91.7446 135.136C91.7446 134.352 91.9032 133.666 92.2206 133.078C92.5379 132.48 92.9719 132.018 93.5226 131.692C94.0826 131.365 94.7032 131.202 95.3846 131.202C96.0566 131.202 96.6399 131.346 97.1346 131.636C97.6292 131.925 97.9979 132.289 98.2406 132.728V131.328H99.5286V139H98.2406V137.572C97.9886 138.02 97.6106 138.393 97.1066 138.692C96.6119 138.981 96.0332 139.126 95.3706 139.126C94.6892 139.126 94.0732 138.958 93.5226 138.622C92.9719 138.286 92.5379 137.814 92.2206 137.208C91.9032 136.601 91.7446 135.91 91.7446 135.136ZM98.2406 135.15C98.2406 134.571 98.1239 134.067 97.8906 133.638C97.6572 133.208 97.3399 132.882 96.9386 132.658C96.5466 132.424 96.1126 132.308 95.6366 132.308C95.1606 132.308 94.7266 132.42 94.3346 132.644C93.9426 132.868 93.6299 133.194 93.3966 133.624C93.1632 134.053 93.0466 134.557 93.0466 135.136C93.0466 135.724 93.1632 136.237 93.3966 136.676C93.6299 137.105 93.9426 137.436 94.3346 137.67C94.7266 137.894 95.1606 138.006 95.6366 138.006C96.1126 138.006 96.5466 137.894 96.9386 137.67C97.3399 137.436 97.6572 137.105 97.8906 136.676C98.1239 136.237 98.2406 135.728 98.2406 135.15ZM105.966 139L102.956 135.612V139H101.682V128.64H102.956V134.73L105.91 131.328H107.688L104.076 135.15L107.702 139H105.966ZM115.887 134.87C115.887 135.112 115.873 135.369 115.845 135.64H109.713C109.759 136.396 110.016 136.988 110.483 137.418C110.959 137.838 111.533 138.048 112.205 138.048C112.755 138.048 113.213 137.922 113.577 137.67C113.95 137.408 114.211 137.063 114.361 136.634H115.733C115.527 137.371 115.117 137.973 114.501 138.44C113.885 138.897 113.119 139.126 112.205 139.126C111.477 139.126 110.823 138.962 110.245 138.636C109.675 138.309 109.227 137.847 108.901 137.25C108.574 136.643 108.411 135.943 108.411 135.15C108.411 134.356 108.569 133.661 108.887 133.064C109.204 132.466 109.647 132.009 110.217 131.692C110.795 131.365 111.458 131.202 112.205 131.202C112.933 131.202 113.577 131.36 114.137 131.678C114.697 131.995 115.126 132.434 115.425 132.994C115.733 133.544 115.887 134.17 115.887 134.87ZM114.571 134.604C114.571 134.118 114.463 133.703 114.249 133.358C114.034 133.003 113.74 132.737 113.367 132.56C113.003 132.373 112.597 132.28 112.149 132.28C111.505 132.28 110.954 132.485 110.497 132.896C110.049 133.306 109.792 133.876 109.727 134.604H114.571ZM127.307 129.242V130.278H124.647V139H123.373V130.278H120.699V129.242H127.307ZM132.683 131.188C133.262 131.188 133.784 131.314 134.251 131.566C134.718 131.808 135.082 132.177 135.343 132.672C135.614 133.166 135.749 133.768 135.749 134.478V139H134.489V134.66C134.489 133.894 134.298 133.311 133.915 132.91C133.532 132.499 133.01 132.294 132.347 132.294C131.675 132.294 131.138 132.504 130.737 132.924C130.345 133.344 130.149 133.955 130.149 134.758V139H128.875V128.64H130.149V132.42C130.401 132.028 130.746 131.724 131.185 131.51C131.633 131.295 132.132 131.188 132.683 131.188ZM144.83 134.87C144.83 135.112 144.816 135.369 144.788 135.64H138.656C138.703 136.396 138.959 136.988 139.426 137.418C139.902 137.838 140.476 138.048 141.148 138.048C141.699 138.048 142.156 137.922 142.52 137.67C142.893 137.408 143.155 137.063 143.304 136.634H144.676C144.471 137.371 144.06 137.973 143.444 138.44C142.828 138.897 142.063 139.126 141.148 139.126C140.42 139.126 139.767 138.962 139.188 138.636C138.619 138.309 138.171 137.847 137.844 137.25C137.517 136.643 137.354 135.943 137.354 135.15C137.354 134.356 137.513 133.661 137.83 133.064C138.147 132.466 138.591 132.009 139.16 131.692C139.739 131.365 140.401 131.202 141.148 131.202C141.876 131.202 142.52 131.36 143.08 131.678C143.64 131.995 144.069 132.434 144.368 132.994C144.676 133.544 144.83 134.17 144.83 134.87ZM143.514 134.604C143.514 134.118 143.407 133.703 143.192 133.358C142.977 133.003 142.683 132.737 142.31 132.56C141.946 132.373 141.54 132.28 141.092 132.28C140.448 132.28 139.897 132.485 139.44 132.896C138.992 133.306 138.735 133.876 138.67 134.604H143.514ZM155.76 129.242V130.278H151.518V133.568H154.962V134.604H151.518V139H150.244V129.242H155.76ZM157.957 130.082C157.714 130.082 157.509 129.998 157.341 129.83C157.173 129.662 157.089 129.456 157.089 129.214C157.089 128.971 157.173 128.766 157.341 128.598C157.509 128.43 157.714 128.346 157.957 128.346C158.19 128.346 158.386 128.43 158.545 128.598C158.713 128.766 158.797 128.971 158.797 129.214C158.797 129.456 158.713 129.662 158.545 129.83C158.386 129.998 158.19 130.082 157.957 130.082ZM158.573 131.328V139H157.299V131.328H158.573ZM162.018 132.574C162.242 132.135 162.559 131.794 162.97 131.552C163.39 131.309 163.899 131.188 164.496 131.188V132.504H164.16C162.732 132.504 162.018 133.278 162.018 134.828V139H160.744V131.328H162.018V132.574ZM168.683 139.126C168.095 139.126 167.567 139.028 167.101 138.832C166.634 138.626 166.265 138.346 165.995 137.992C165.724 137.628 165.575 137.212 165.547 136.746H166.863C166.9 137.128 167.077 137.441 167.395 137.684C167.721 137.926 168.146 138.048 168.669 138.048C169.154 138.048 169.537 137.94 169.817 137.726C170.097 137.511 170.237 137.24 170.237 136.914C170.237 136.578 170.087 136.33 169.789 136.172C169.49 136.004 169.028 135.84 168.403 135.682C167.833 135.532 167.367 135.383 167.003 135.234C166.648 135.075 166.34 134.846 166.079 134.548C165.827 134.24 165.701 133.838 165.701 133.344C165.701 132.952 165.817 132.592 166.051 132.266C166.284 131.939 166.615 131.682 167.045 131.496C167.474 131.3 167.964 131.202 168.515 131.202C169.364 131.202 170.05 131.416 170.573 131.846C171.095 132.275 171.375 132.863 171.413 133.61H170.139C170.111 133.208 169.947 132.886 169.649 132.644C169.359 132.401 168.967 132.28 168.473 132.28C168.015 132.28 167.651 132.378 167.381 132.574C167.11 132.77 166.975 133.026 166.975 133.344C166.975 133.596 167.054 133.806 167.213 133.974C167.381 134.132 167.586 134.263 167.829 134.366C168.081 134.459 168.426 134.566 168.865 134.688C169.415 134.837 169.863 134.986 170.209 135.136C170.554 135.276 170.848 135.49 171.091 135.78C171.343 136.069 171.473 136.447 171.483 136.914C171.483 137.334 171.366 137.712 171.133 138.048C170.899 138.384 170.568 138.65 170.139 138.846C169.719 139.032 169.233 139.126 168.683 139.126ZM174.835 132.378V136.9C174.835 137.273 174.914 137.539 175.073 137.698C175.232 137.847 175.507 137.922 175.899 137.922H176.837V139H175.689C174.98 139 174.448 138.836 174.093 138.51C173.738 138.183 173.561 137.646 173.561 136.9V132.378H172.567V131.328H173.561V129.396H174.835V131.328H176.837V132.378H174.835ZM192.011 129.312V139H190.737V131.776L187.517 139H186.621L183.387 131.762V139H182.113V129.312H183.485L187.069 137.32L190.653 129.312H192.011ZM197.518 139.126C196.799 139.126 196.146 138.962 195.558 138.636C194.979 138.309 194.522 137.847 194.186 137.25C193.859 136.643 193.696 135.943 193.696 135.15C193.696 134.366 193.864 133.675 194.2 133.078C194.545 132.471 195.012 132.009 195.6 131.692C196.188 131.365 196.846 131.202 197.574 131.202C198.302 131.202 198.96 131.365 199.548 131.692C200.136 132.009 200.598 132.466 200.934 133.064C201.279 133.661 201.452 134.356 201.452 135.15C201.452 135.943 201.274 136.643 200.92 137.25C200.574 137.847 200.103 138.309 199.506 138.636C198.908 138.962 198.246 139.126 197.518 139.126ZM197.518 138.006C197.975 138.006 198.404 137.898 198.806 137.684C199.207 137.469 199.529 137.147 199.772 136.718C200.024 136.288 200.15 135.766 200.15 135.15C200.15 134.534 200.028 134.011 199.786 133.582C199.543 133.152 199.226 132.835 198.834 132.63C198.442 132.415 198.017 132.308 197.56 132.308C197.093 132.308 196.664 132.415 196.272 132.63C195.889 132.835 195.581 133.152 195.348 133.582C195.114 134.011 194.998 134.534 194.998 135.15C194.998 135.775 195.11 136.302 195.334 136.732C195.567 137.161 195.875 137.483 196.258 137.698C196.64 137.903 197.06 138.006 197.518 138.006ZM205.983 137.824L208.363 131.328H209.721L206.711 139H205.227L202.217 131.328H203.589L205.983 137.824ZM217.974 134.87C217.974 135.112 217.96 135.369 217.932 135.64H211.8C211.847 136.396 212.104 136.988 212.57 137.418C213.046 137.838 213.62 138.048 214.292 138.048C214.843 138.048 215.3 137.922 215.664 137.67C216.038 137.408 216.299 137.063 216.448 136.634H217.82C217.615 137.371 217.204 137.973 216.588 138.44C215.972 138.897 215.207 139.126 214.292 139.126C213.564 139.126 212.911 138.962 212.332 138.636C211.763 138.309 211.315 137.847 210.988 137.25C210.662 136.643 210.498 135.943 210.498 135.15C210.498 134.356 210.657 133.661 210.974 133.064C211.292 132.466 211.735 132.009 212.304 131.692C212.883 131.365 213.546 131.202 214.292 131.202C215.02 131.202 215.664 131.36 216.224 131.678C216.784 131.995 217.214 132.434 217.512 132.994C217.82 133.544 217.974 134.17 217.974 134.87ZM216.658 134.604C216.658 134.118 216.551 133.703 216.336 133.358C216.122 133.003 215.828 132.737 215.454 132.56C215.09 132.373 214.684 132.28 214.236 132.28C213.592 132.28 213.042 132.485 212.584 132.896C212.136 133.306 211.88 133.876 211.814 134.604H216.658ZM221.308 129.242L221.154 136.242H220.09L219.936 129.242H221.308ZM220.678 139.084C220.435 139.084 220.23 139 220.062 138.832C219.894 138.664 219.81 138.458 219.81 138.216C219.81 137.973 219.894 137.768 220.062 137.6C220.23 137.432 220.435 137.348 220.678 137.348C220.911 137.348 221.107 137.432 221.266 137.6C221.434 137.768 221.518 137.973 221.518 138.216C221.518 138.458 221.434 138.664 221.266 138.832C221.107 139 220.911 139.084 220.678 139.084Z" fill="#232BEB"/>
<path fill-rule="evenodd" clip-rule="evenodd" d="M197.941 42.3214L197.918 42.3158L197.769 42.3225L197.731 42.3143L197.71 42.2968L197.615 42.1806C197.598 42.1679 197.583 42.1653 197.569 42.1728L197.554 42.1871L197.2 42.9147L197.194 42.9531L197.201 42.9831L197.325 43.19L197.348 43.2083L197.372 43.2105L197.608 43.1613L197.641 43.1427L197.66 43.1163L197.955 42.3647C197.958 42.3442 197.954 42.3298 197.941 42.3214ZM198.483 42.3261L198.457 42.3189L198.069 42.3403L198.044 42.3501L198.03 42.3668L197.735 43.1244L197.735 43.1489L197.743 43.1688L198.021 43.4804C198.04 43.4958 198.059 43.4985 198.077 43.4885L198.094 43.4674L198.501 42.3793C198.505 42.3549 198.499 42.3371 198.483 42.3261ZM197.245 41.7875C197.239 41.7795 197.231 41.774 197.221 41.7722C197.211 41.7703 197.202 41.7722 197.193 41.7774L197.172 41.7971L196.648 42.8336C196.64 42.8548 196.644 42.873 196.659 42.888L196.687 42.8959L197.105 42.8874L197.128 42.8811L197.142 42.8644L197.499 42.1341L197.503 42.111L197.493 42.0862L197.245 41.7875Z" fill="#232BEB"/>
<path fill-rule="evenodd" clip-rule="evenodd" d="M211.512 8.55312C211.311 9.01196 211.301 9.53189 211.483 9.99851C211.665 10.4651 212.025 10.8402 212.484 11.0413L220.418 14.518L207.248 19.6626C206.9 19.7986 206.601 20.0346 206.387 20.3409C206.173 20.6473 206.055 21.0101 206.047 21.3835C206.04 21.757 206.143 22.1243 206.344 22.439C206.545 22.7538 206.835 23.0018 207.177 23.1518L219.288 28.4587C219.747 28.6597 220.267 28.6703 220.733 28.488C221.2 28.3057 221.575 27.9455 221.776 27.4867C221.977 27.0278 221.988 26.5079 221.805 26.0413C221.623 25.5747 221.263 25.1996 220.804 24.9985L212.87 21.5218L226.04 16.3772C226.388 16.2412 226.688 16.0052 226.901 15.6989C227.115 15.3925 227.233 15.0297 227.241 14.6563C227.249 14.2828 227.145 13.9155 226.944 13.6008C226.743 13.286 226.453 13.038 226.111 12.888L214 7.58116C213.542 7.38009 213.022 7.36954 212.555 7.55182C212.088 7.7341 211.713 8.09427 211.512 8.55312ZM193.123 12.8686C192.664 12.6676 192.304 12.2925 192.122 11.8258C191.939 11.3592 191.95 10.8393 192.151 10.3805C192.352 9.92161 192.727 9.56143 193.194 9.37915C193.66 9.19687 194.18 9.20743 194.639 9.40849L203.29 13.1991C203.632 13.3491 203.922 13.5971 204.123 13.9119C204.324 14.2266 204.427 14.5939 204.42 14.9674C204.412 15.3408 204.294 15.7036 204.08 16.01C203.866 16.3163 203.567 16.5523 203.219 16.6883L195.025 19.889L199.499 21.8495C199.958 22.0505 200.318 22.4256 200.5 22.8922C200.683 23.3589 200.672 23.8788 200.471 24.3376C200.27 24.7965 199.895 25.1567 199.428 25.3389C198.962 25.5212 198.442 25.5107 197.983 25.3096L189.332 21.519C188.99 21.369 188.7 21.121 188.499 20.8062C188.298 20.4915 188.195 20.1242 188.202 19.7507C188.21 19.3773 188.328 19.0144 188.542 18.7081C188.756 18.4018 189.055 18.1658 189.403 18.0298L197.597 14.8291L193.123 12.8686ZM201.657 31.0441C201.198 30.843 200.838 30.4679 200.655 30.0013C200.473 29.5347 200.484 29.0148 200.685 28.5559C200.886 28.0971 201.261 27.7369 201.728 27.5546C202.194 27.3723 202.714 27.3829 203.173 27.5839L210.093 30.6164C210.435 30.7664 210.725 31.0145 210.926 31.3292C211.128 31.644 211.231 32.0113 211.223 32.3847C211.216 32.7582 211.098 33.121 210.884 33.4273C210.67 33.7336 210.37 33.9697 210.022 34.1056L204.317 36.3343L207.061 37.5367C207.52 37.7378 207.88 38.1129 208.062 38.5795C208.244 39.0461 208.234 39.5661 208.033 40.0249C207.832 40.4838 207.457 40.8439 206.99 41.0262C206.523 41.2085 206.003 41.1979 205.545 40.9969L198.624 37.9644C198.282 37.8144 197.992 37.5664 197.791 37.2516C197.59 36.9369 197.487 36.5695 197.494 36.1961C197.502 35.8226 197.62 35.4598 197.834 35.1535C198.048 34.8472 198.347 34.6111 198.695 34.4752L204.401 32.2465L201.657 31.0441Z" fill="#232BEB"/>
</svg>
