<svg width="430" height="436" viewBox="0 0 430 436" fill="none" xmlns="http://www.w3.org/2000/svg">
<g clip-path="url(#clip0_2007_125)">
<path d="M43.5739 278.801C177.15 260.274 280.602 378.907 238.308 505.308C218.835 563.878 136.681 591.967 148.852 707.611C159.806 811.9 290.035 832.519 234.049 984.619C181.714 1126.56 -30.9729 1125.96 -83.9163 984.619C-131.991 856.723 -31.2771 808.912 -7.84814 747.056C57.5704 574.336 -144.467 557.602 -86.3505 388.768C-69.3112 339.462 -9.97806 286.272 43.5739 278.801Z" fill="#232BEB"/>
<path d="M398.051 1.78874C531.627 -16.7382 635.08 101.894 592.786 228.296C573.312 286.865 491.159 314.954 503.33 430.599C514.284 534.888 644.512 555.506 588.526 707.607C536.191 849.547 323.505 848.95 270.561 707.607C222.486 579.711 323.2 531.899 346.629 470.043C412.048 297.324 210.011 280.59 268.127 111.755C285.166 62.4497 344.499 9.25929 398.051 1.78874Z" fill="#232BEB"/>
</g>
<defs>
<clipPath id="clip0_2007_125">
<rect width="1054" height="1091" fill="white" transform="translate(-97)"/>
</clipPath>
</defs>
</svg>
