<svg width="25" height="25" viewBox="0 0 25 25" fill="none" xmlns="http://www.w3.org/2000/svg">
<path d="M13.0417 0.200054C12.8907 0.0709469 12.6986 0 12.5 0C12.3014 0 12.1093 0.0709469 11.9583 0.200054L0 10.45V22.5C0 23.163 0.263392 23.7989 0.732233 24.2678C1.20107 24.7366 1.83696 25 2.5 25H9.16667C9.38768 25 9.59964 24.9122 9.75592 24.7559C9.9122 24.5996 10 24.3877 10 24.1667V19.1667C10 18.5036 10.2634 17.8678 10.7322 17.3989C11.2011 16.9301 11.837 16.6667 12.5 16.6667C13.163 16.6667 13.7989 16.9301 14.2678 17.3989C14.7366 17.8678 15 18.5036 15 19.1667V24.1667C15 24.3877 15.0878 24.5996 15.2441 24.7559C15.4004 24.9122 15.6123 25 15.8333 25H22.5C23.163 25 23.7989 24.7366 24.2678 24.2678C24.7366 23.7989 25 23.163 25 22.5V10.45L13.0417 0.200054Z" fill="#EAEAEA"/>
</svg>
