<svg width="364" height="189" viewBox="0 0 364 189" fill="none" xmlns="http://www.w3.org/2000/svg">
<g clip-path="url(#clip0_2017_20)">
<path d="M48.5473 96.341C94.6778 89.9389 130.405 130.933 115.799 174.612C109.074 194.85 80.7021 204.557 84.9053 244.518C88.6882 280.556 133.663 287.681 114.328 340.24C96.2541 389.288 22.8025 389.081 4.51847 340.24C-12.0843 296.045 22.6975 279.523 30.7887 258.148C53.3811 198.465 -16.3926 192.682 3.67783 134.34C9.56235 117.303 30.0531 98.9225 48.5473 96.341Z" fill="#232BEB"/>
<path d="M293.386 96.341C339.516 89.9389 375.244 130.933 360.637 174.612C353.912 194.85 325.54 204.557 329.744 244.518C333.527 280.556 378.501 287.681 359.166 340.24C341.092 389.288 267.641 389.081 249.357 340.24C232.754 296.045 267.536 279.523 275.627 258.148C298.219 198.465 228.446 192.682 248.516 134.34C254.401 117.303 274.892 98.9225 293.386 96.341Z" fill="#232BEB"/>
<path d="M170.967 0.618102C217.097 -5.78398 252.825 35.21 238.218 78.8887C231.493 99.1275 203.121 108.834 207.325 148.795C211.107 184.833 256.082 191.958 236.747 244.517C218.673 293.565 145.222 293.358 126.938 244.517C110.335 200.322 145.117 183.8 153.208 162.426C175.8 102.742 106.027 96.9591 126.097 38.6176C131.982 21.5798 152.472 3.19959 170.967 0.618102Z" fill="#232BEB"/>
</g>
<defs>
<clipPath id="clip0_2017_20">
<rect width="364" height="377" fill="white"/>
</clipPath>
</defs>
</svg>
